<?xml version="1.0" encoding="utf-8"?>
<!-- Generator: Adobe Illustrator 16.2.1, SVG Export Plug-In . SVG Version: 6.00 Build 0)  -->
<!DOCTYPE svg PUBLIC "-//W3C//DTD SVG 1.1//EN" "http://www.w3.org/Graphics/SVG/1.1/DTD/svg11.dtd">
<svg version="1.1" id="Layer_1" xmlns="http://www.w3.org/2000/svg" xmlns:xlink="http://www.w3.org/1999/xlink" x="0px" y="0px"
	 width="167px" height="147.667px" viewBox="-18.961 -27.752 167 147.667" enable-background="new -18.961 -27.752 167 147.667"
	 xml:space="preserve">
<g>
	<path fill="#E33F58" d="M106.089,115.165l3.287-5.434c0.463,0.504,1.223,0.843,1.98,0.843c1.055,0,1.686-0.677,1.686-1.812V86.466
		h8.007v21.662c0,5.521-3.582,9.314-8.681,9.314C110.049,117.442,107.816,116.642,106.089,115.165z M113.042,84.611V77.87h8.007
		v6.741H113.042z"/>
	<path fill="#E33F58" d="M124.507,106.4l3.075-5.437c3.077,1.601,5.943,2.488,8.345,2.488c1.434,0,2.107-0.338,2.107-1.055
		c0-0.758-0.886-1.181-4.046-1.98c-6.279-1.644-8.344-3.287-8.344-6.617c0-4.552,3.961-7.796,9.482-7.796
		c2.949,0,6.448,0.885,9.987,2.485l-3.077,5.099c-3.117-1.474-5.014-2.063-6.91-2.063c-1.224,0-2.066,0.378-2.066,1.139
		c0,0.843,0.801,1.221,3.751,1.937c6.785,1.728,8.935,3.458,8.935,7.08c0,4.552-3.709,7.375-9.65,7.375
		C132.345,109.055,127.372,107.919,124.507,106.4z"/>
	<path fill="#FFFFFF" d="M11.232,14.692V-6.599L4.919,8.373h-5.517L-6.174-6.739v21.29l-11.082,0.142v-40.418h11.509L2.16-6.712
		l7.818-19.014h12.31v40.418H11.232z"/>
	<path fill="#FFFFFF" d="M23.443,14.692l15.086-40.418h8.994l15.029,40.418H50.825L48.377,6.78H37.618l-2.392,7.912H23.443z
		 M43.026-14.169L39.269-0.621h7.343L43.026-14.169z"/>
	<path fill="#FFFFFF" d="M74.959-5.175v19.867H63.858v-40.418h8.653L88.734-5.175v-20.551h11.103v40.418h-8.824L74.959-5.175z"/>
	<path fill="#FFFFFF" d="M18.494,20.952v40.417H7.394V45.544H-6.155v15.825h-11.101V20.952h11.101v14.914H7.394V20.952H18.494z"/>
	<path fill="#FFFFFF" d="M24.696,61.369L39.78,20.952h8.996l15.029,40.417H52.078l-2.448-7.912H38.87l-2.391,7.912H24.696z
		 M44.279,32.508l-3.758,13.548h7.343L44.279,32.508z"/>
	<path fill="#FFFFFF" d="M99.837,30.629H88.223v30.74h-11.1v-30.74h-11.67v-9.677h34.384V30.629z"/>
	<path fill="#FFFFFF" d="M17.127,77.305H5.515v30.741H-5.586V77.305h-11.67v-9.676h34.383V77.305z"/>
	<path fill="#FFFFFF" d="M18.349,108.046l15.085-40.417h8.995l15.029,40.417H45.729l-2.447-7.912h-10.76l-2.391,7.912H18.349z
		 M37.932,79.184l-3.758,13.549h7.343L37.932,79.184z"/>
	<path fill="#FFFFFF" d="M74.959,88.178v19.868H63.858V67.629h8.653l16.223,20.549V67.629h11.103v40.417h-8.824L74.959,88.178z"/>
</g>
</svg>
