<svg version="1.1" id="Layer_1" xmlns="http://www.w3.org/2000/svg" xmlns:xlink="http://www.w3.org/1999/xlink"
	 viewBox="0 396 261 198">
<path fill="#E33F58" d="M220.4,447.2c-0.4,0-0.8-0.4-1.5-0.8l0,0c-1.9-10.6-15.1-18.5-26.1-20.4h-1.1c-0.4,0-1.1,0-1.5-0.4
	c-4.9-10.2-16.6-17-28.3-17c-14.4,0-28.3,10.2-31.7,23.4c-0.4,0.4-1.1,0.8-1.5,1.5c0,0-0.4,0-0.4,0.4c-2.6-4.9-9.8-7.6-16.6-7.6
	c-14,0-25.3,12.5-25.3,27.6c0,0.4,0,0.4-0.4,0.8c-0.8,0-1.9-0.4-2.6-0.4c-3.4-9.4-20-15.5-33.6-15.5c-25.3,0-44.6,15.9-44.6,40.8
	c0,17,9.8,32.1,23.8,37.4c-2.6,4.2-4.2,8.7-4.2,13.6c0,17.8,20,32.1,44.6,32.1c4.5,0,9.1-0.4,13.2-1.5c7.2,6.8,17,12.1,26.8,12.1
	c14.7,0,29.1-7.6,34.8-20c6.8,11.3,20,19.3,34.4,19.3c22.3,0,40.4-18.9,40.4-41.2c0-9.1-3-10.2-8.3-25.3c3,0,6.4,3.4,9.8,3.4
	c17,0,31-12.1,31-29.1C251.8,462.7,237.8,447.2,220.4,447.2z"/>
</svg>
