<?xml version="1.0" encoding="utf-8"?>
<!-- Generator: Adobe Illustrator 17.1.0, SVG Export Plug-In . SVG Version: 6.00 Build 0)  -->
<!DOCTYPE svg PUBLIC "-//W3C//DTD SVG 1.1//EN" "http://www.w3.org/Graphics/SVG/1.1/DTD/svg11.dtd">
<svg version="1.1" id="Layer_1" xmlns="http://www.w3.org/2000/svg" xmlns:xlink="http://www.w3.org/1999/xlink" x="0px" y="0px"
	 viewBox="0 0 223.7 26.9" enable-background="new 0 0 223.7 26.9" xml:space="preserve">
<text transform="matrix(1 0 0 1 173.9922 303.9126)" font-family="'Raleway-Heavy'" font-size="52" letter-spacing="2">MANHATTAN</text>
<path fill="#E33F58" d="M200.3,25.5l1.9-3.1c0.3,0.3,0.7,0.5,1.1,0.5c0.6,0,1-0.4,1-1V8.9h4.6v12.5c0,3.2-2.1,5.4-5,5.4
	C202.6,26.9,201.3,26.4,200.3,25.5z M204.3,7.9V4h4.6v3.9H204.3z"/>
<path fill="#E33F58" d="M211.4,20.5l1.8-3.1c1.8,0.9,3.4,1.4,4.8,1.4c0.8,0,1.2-0.2,1.2-0.6c0-0.4-0.5-0.7-2.3-1.1
	c-3.6-1-4.8-1.9-4.8-3.8c0-2.6,2.3-4.5,5.5-4.5c1.7,0,3.7,0.5,5.8,1.4l-1.8,3c-1.8-0.9-2.9-1.2-4-1.2c-0.7,0-1.2,0.2-1.2,0.7
	c0,0.5,0.5,0.7,2.2,1.1c3.9,1,5.2,2,5.2,4.1c0,2.6-2.1,4.3-5.6,4.3C215.9,22,213.1,21.4,211.4,20.5z"/>
<g>
	<path fill="#FFFFFF" d="M16,21.2V10l-3.6,7.9H9.4L5.8,10v11.2H0V0h6.4l4.6,10l4.6-10h6.3v21.2H16z"/>
	<path fill="#FFFFFF" d="M24.9,21.2L32.9,0h4.7l7.9,21.2h-6.2L38,17.1h-5.6l-1.3,4.2H24.9z M35.2,6.1l-2,7.1h3.9L35.2,6.1z"/>
	<path fill="#FFFFFF" d="M54.4,10.8v10.4h-5.8V0h4.5l8.5,10.8V0h5.8v21.2h-4.6L54.4,10.8z"/>
	<path fill="#FFFFFF" d="M91.3,0v21.2h-5.8v-8.3h-7.1v8.3h-5.8V0h5.8v7.8h7.1V0H91.3z"/>
	<path fill="#FFFFFF" d="M94.4,21.2L102.3,0h4.7l7.9,21.2h-6.2l-1.3-4.2h-5.6l-1.3,4.2H94.4z M104.7,6.1l-2,7.1h3.9L104.7,6.1z"/>
	<path fill="#FFFFFF" d="M132.7,5.1h-6.1v16.1h-5.8V5.1h-6.1V0h18V5.1z"/>
	<path fill="#FFFFFF" d="M152.8,5.1h-6.1v16.1h-5.8V5.1h-6.1V0h18V5.1z"/>
	<path fill="#FFFFFF" d="M152.5,21.2L160.4,0h4.7l7.9,21.2h-6.2l-1.3-4.2H160l-1.3,4.2H152.5z M162.8,6.1l-2,7.1h3.9L162.8,6.1z"/>
	<path fill="#FFFFFF" d="M181.9,10.8v10.4h-5.8V0h4.5l8.5,10.8V0h5.8v21.2h-4.6L181.9,10.8z"/>
</g>
</svg>
