<svg version="1.1" xmlns="http://www.w3.org/2000/svg" xmlns:xlink="http://www.w3.org/1999/xlink"
	 viewBox="364 0 151 780">
<g>
	<rect x="474" y="210.1" fill="#C7E6D7" width="6.4" height="6.4"/>
	<path fill="#C7E6D7" d="M458.7,134.2l-1.4-14.5l-8.9,10.4C451.7,131.1,455.1,132.4,458.7,134.2L458.7,134.2z"/>
	<path fill="#C7E6D7" d="M446.9,129.7l-2.7-16.7l-9.9,15.5C438.1,128.5,442.3,128.8,446.9,129.7L446.9,129.7z"/>
	<path fill="#C7E6D7" d="M428.7,117.4l-3.1,12.1c2.1-0.4,4.7-0.8,7.3-0.9L428.7,117.4z"/>
	<rect x="480.5" y="283.5" fill="#C7E6D7" width="10.8" height="4.3"/>
	<rect x="476.2" y="227.4" fill="#C7E6D7" width="13" height="6.4"/>
	<rect x="476.2" y="262" fill="#C7E6D7" width="13" height="4.3"/>
	<path fill="#C7E6D7" d="M463.5,168.4l-2.1-16.5l-14.5,9.1C452.3,162.2,457.9,164.6,463.5,168.4L463.5,168.4z"/>
	<rect x="476.2" y="244.7" fill="#C7E6D7" width="13" height="6.4"/>
	<rect x="376.8" y="225.3" fill="#C7E6D7" width="10.8" height="6.4"/>
	<rect x="376.8" y="296.5" fill="#C7E6D7" width="10.8" height="6.4"/>
	<path fill="#C7E6D7" d="M402.7,197.6l4.9,13.4c1-1.8,3.4-5.8,7.2-9.8L402.7,197.6z"/>
	<path fill="#C7E6D7" d="M415.9,180.7l1.3,18.1c2.7-2.4,5.8-4.8,9.3-6.4L415.9,180.7z"/>
	<rect x="376.8" y="283.5" fill="#C7E6D7" width="10.8" height="4.3"/>
	<path fill="#C7E6D7" d="M445,160.5l-4.4-15.6L428,160.3C433.2,159.5,439,159.3,445,160.5L445,160.5z"/>
	<rect x="469.6" y="322.4" fill="#C7E6D7" width="26" height="10.8"/>
	<path fill="#C7E6D7" d="M420.4,146.3l-2.7,16.7c2.6-1,5.3-1.8,8.3-2.4L420.4,146.3z"/>
	<rect x="376.8" y="262" fill="#C7E6D7" width="10.8" height="4.3"/>
	<rect x="376.8" y="238.1" fill="#C7E6D7" width="10.8" height="8.7"/>
	<polygon fill="#C7E6D7" points="404.9,404.4 376.8,404.4 376.8,408.9 377.2,415.3 404.9,415.3 	"/>
	<polygon fill="#C7E6D7" points="411.4,657.1 394.2,657.1 394.9,667.8 411.4,667.8 	"/>
	<polygon fill="#C7E6D7" points="409.2,601 390.8,601 391.4,611.7 409.2,611.7 	"/>
	<polygon fill="#C7E6D7" points="413.5,685.1 396.2,685.1 396.2,691 396.6,698.1 413.5,698.1 	"/>
	<polygon fill="#C7E6D7" points="413.5,732.6 398.8,732.6 399.3,741.3 413.5,741.3 	"/>
	<path fill="#C7E6D7" d="M436.6,174.2l-7.1,17c1.6-0.6,3.2-1,5-1.2c3-0.3,6-0.2,9,0.6L436.6,174.2z"/>
	<polygon fill="#C7E6D7" points="413.5,711.1 397.4,711.1 398,719.8 413.5,719.8 	"/>
	<polygon fill="#C7E6D7" points="404.9,380.7 374.9,380.7 375.1,385.5 375.3,389.3 404.9,389.3 	"/>
	<polygon fill="#C7E6D7" points="402.7,460.6 381.1,460.6 381.1,467.7 381.4,471.4 402.7,471.4 	"/>
	<polygon fill="#C7E6D7" points="402.7,331.1 373.3,331.1 373.6,339.6 402.7,339.6 	"/>
	<rect x="476.2" y="594.5" fill="#C7E6D7" width="13" height="8.7"/>
	<rect x="474" y="346.2" fill="#C7E6D7" width="19.4" height="10.8"/>
	<rect x="474" y="391.5" fill="#C7E6D7" width="19.4" height="10.8"/>
	<rect x="474" y="445.4" fill="#C7E6D7" width="17.3" height="10.8"/>
	<rect x="474" y="372" fill="#C7E6D7" width="19.4" height="8.7"/>
	<rect x="471.9" y="421.7" fill="#C7E6D7" width="19.4" height="8.7"/>
	<rect x="474" y="564.2" fill="#C7E6D7" width="15.1" height="10.8"/>
	<rect x="474" y="473.5" fill="#C7E6D7" width="17.3" height="10.8"/>
	<rect x="474" y="527.5" fill="#C7E6D7" width="15.1" height="8.7"/>
	<rect x="474" y="497.2" fill="#C7E6D7" width="17.3" height="10.8"/>
	<path fill="#C7E6D7" d="M460.1,200l-1.2-19.3l-12.1,10.8C451.1,193.2,455.7,196,460.1,200L460.1,200L460.1,200z"/>
	<rect x="441.6" y="242.4" fill="#C7E6D7" width="4.3" height="6.4"/>
	<polygon fill="#C7E6D7" points="453.3,292.4 468.9,741.3 472.2,741.3 461,292.5 	"/>
	<rect x="441.6" y="259.8" fill="#C7E6D7" width="4.3" height="6.4"/>
	<rect x="441.6" y="210.1" fill="#C7E6D7" width="4.3" height="6.4"/>
	<rect x="389.8" y="572.9" fill="#C7E6D7" width="19.4" height="8.7"/>
	<rect x="441.6" y="225.3" fill="#C7E6D7" width="4.3" height="6.4"/>
	<rect x="394.1" y="624.7" fill="#C7E6D7" width="17.3" height="8.7"/>
	<polygon fill="#C7E6D7" points="414.1,294.9 432,736.9 440.1,736.9 421.9,294.4 	"/>
	<rect x="389.8" y="544.8" fill="#C7E6D7" width="19.4" height="8.7"/>
	<rect x="387.5" y="428.2" fill="#C7E6D7" width="17.3" height="10.8"/>
	<polygon fill="#C7E6D7" points="432.6,293.8 450.9,738.4 456.8,737.5 439.8,292.5 	"/>
	<rect x="387.5" y="490.8" fill="#C7E6D7" width="17.3" height="8.7"/>
	<path fill="#C7E6D7" d="M478.3,743.4v-13h7.9l0.3-8.7h-8.2v-13h8.8l0.3-6.4h-9.1v-13h9.7l0.3-8.7h-10v-17.1H489l0.4-10.8h-9.1v-13
		h9.7l0.3-6.4h-12.1v-13h12.6l17.9-407.5l-20.4-2.8l-24.4-109.1l-15-5.3l-1.6-66.9h-8.2l-6.8,69.1h-17.7l-24.5,116.6h-20.5
		l3.7,114.5h31.6v13h-31.2l0.3,10.8h33.1V370h-32.5l0.2,8.7H407v13h-31.5l0.8,10.8H407v15.1h-29.6l3,41h24.4v14.9h-23.3l3.9,52.9
		v-14.1H407v15.1h-21.5l3.2,43.1h22.6v13.1h-21.6l0.4,6.1l0.6,9h20.7v15.1h-19.7l0.6,8.7h21.4v13H393l1.2,19.4h19.4V670h-18.5
		l0.8,13h20v17.3H397l0.6,8.7h18.3v13h-17.5l0.6,8.7h17.1v12.9h-16.3l1.6,26.2l83.2,4l1.3-30.2L478.3,743.4L478.3,743.4z
		 M491.3,605.2H474v-13h17.3V605.2z M491.3,577.1h-19.5V562h19.4v15.1H491.3z M491.3,538.3h-19.5v-13h19.4v13H491.3z M493.4,510.2
		h-21.6v-15.1h21.6V510.2z M493.4,486.5h-21.6v-15.1h21.6V486.5z M493.4,458.4h-21.6v-15.1h21.6V458.4z M493.4,432.5h-23.7v-13h23.7
		V432.5z M495.6,404.4h-23.8v-15.1h23.7L495.6,404.4L495.6,404.4z M495.6,382.8h-23.8v-13h23.7L495.6,382.8L495.6,382.8z M495.6,359
		h-23.8v-15.1h23.7L495.6,359L495.6,359z M497.7,335.3h-30.3v-15.1h30.3V335.3z M493.4,289.9h-15.1v-8.7h15.1V289.9z M491.3,259.8
		v8.7H474v-8.7H491.3z M474,253.2v-10.8h17.3v10.8H474z M491.3,225.1v10.8H474v-10.8H491.3z M482.6,218.7h-10.9v-10.8h10.8v10.8
		H482.6z M422.4,129.6l5.8-22.2l6,15.8l11.8-18.5l3.1,19.9l10.3-12.1l2.4,23.8c1.6,1,3,2,4.5,3.2l-1.9,2.4c-22.3-17.6-46-7.1-46.3-7
		l-1.3-2.8c0.1,0,2.6-1.1,6.5-2.1L422.4,129.6z M417.3,163.2l-2.7-0.4l4.4-28.1l8.4,21.2l14.4-17.6l5.3,18.7l16.6-10.4l3,24.2
		c2.4,1.9,5,4,7.4,6.5l-2.2,2.2c-34.4-34.4-67-6.3-68.3-5.1l-1.9-2.3C402,172.1,408,166.9,417.3,163.2L417.3,163.2z M374.6,223h15.1
		v10.8h-15.1V223z M374.6,236h15.1v13h-15.1V236L374.6,236z M374.6,259.8h15.1v8.7h-15.1V259.8z M374.6,281.3h15.1v8.7h-15.1V281.3z
		 M374.6,294.2h15.1V305h-15.1V294.2z M400.5,284.3v33.8h-21.6V316h19.4v-33.5l63.7-10.3l0.9-64.9c-9.5-10.5-19-15.2-28-14.1
		c-14.3,1.8-23.6,17.7-24.8,20.1l-4.1,65.9l-3.1-0.2l4.1-66.6l0.1-0.3c0,0,0,0,0-0.1l-2.1,0.8l-7.2-19.7l16.3,4.9l-1.9-25.7l15,16.4
		l9.3-22.3l9.2,22l15.6-14.1l1.9,29.1c0.8,0.8,1.4,1.6,2.2,2.3l0.4,0.4l-0.8,65.4l4.5-0.8v30.9l23.3,0.2l0.2,2.1l-25.6-0.2v-30.5
		L400.5,284.3z M430.7,229.5v8.7h-6.4v-8.7H430.7z M424.3,220.8v-8.7h6.4v8.7H424.3z M430.7,246.8v6.4h-6.4v-6.4H430.7z
		 M430.7,259.8v10.7h-6.4v-10.8L430.7,259.8L430.7,259.8z M448,223v10.8h-8.7V223H448z M439.3,218.7v-10.8h8.7v10.8H439.3z
		 M448,240.2V251h-8.7v-10.8H448z M448,257.5v10.8h-8.7v-10.8H448z M385.4,441.1V426H407v15.1H385.4z M385.4,501.6v-13H407v13H385.4
		z M411.3,555.6h-23.7v-13h23.7V555.6z M429.9,739.1l-18.2-446.2l12.2-0.9v1.1L442.2,739L429.9,739.1L429.9,739.1z M448,741.8
		l-0.1-1.7l-18.5-448.9l13.3-2.4L459.9,740L448,741.8z M466.7,743.4v-1L451,290.1l12.1,0.1v1l11.3,452.1L466.7,743.4L466.7,743.4z"
		/>
	<polygon fill="#C7E6D7" points="480.5,741.3 485.7,741.3 486,732.6 480.5,732.6 	"/>
	<polygon fill="#C7E6D7" points="480.5,631.1 490.5,631.1 490.8,622.6 480.5,622.6 	"/>
	<polygon fill="#C7E6D7" points="480.5,678.7 488.4,678.7 488.9,665.7 480.5,665.7 	"/>
	<rect x="425.6" y="249" fill="#C7E6D7" width="2.1" height="2.1"/>
	<polygon fill="#C7E6D7" points="480.5,700.2 487.5,700.2 487.8,691.7 480.5,691.7 	"/>
	<rect x="425.6" y="214.4" fill="#C7E6D7" width="2.1" height="4.3"/>
	<polygon fill="#C7E6D7" points="480.5,719.8 486.6,719.8 486.9,711.1 480.5,711.1 	"/>
	<rect x="374.7" y="354.8" fill="#C7E6D7" width="30.3" height="13"/>
	<rect x="387.5" y="514.5" fill="#C7E6D7" width="17.3" height="10.8"/>
	<rect x="425.6" y="231.7" fill="#C7E6D7" width="2.1" height="4.3"/>
	<rect x="426.5" y="262" fill="#C7E6D7" width="2.1" height="6.4"/>
	<polygon fill="#C7E6D7" points="482.6,650.6 489.6,650.6 490,642 482.6,642 	"/>
</g>
</svg>
