<svg version="1.1" xmlns="http://www.w3.org/2000/svg" xmlns:xlink="http://www.w3.org/1999/xlink"
	 viewBox="6.779 -26.75 294 714">
<g>
	<rect x="240.969" y="177.156" fill="#C7E6D7" width="5.8" height="5.8"/>
	<path fill="#C7E6D7" d="M227.168,108.824l-1.334-13.069l-8.017,9.386C220.86,105.956,223.969,107.156,227.168,108.824
		L227.168,108.824z"/>
	<path fill="#C7E6D7" d="M216.551,104.823l-2.396-15.084l-8.929,13.964c3.445-0.047,7.241,0.153,11.343,1.12H216.551z"/>
	<path fill="#C7E6D7" d="M200.194,93.719l-2.842,10.859c1.932-0.379,4.161-0.695,6.624-0.828L200.194,93.719z"/>
	<rect x="246.868" y="243.356" fill="#C7E6D7" width="9.701" height="3.9"/>
	<rect x="242.969" y="192.756" fill="#C7E6D7" width="11.7" height="5.8"/>
	<rect x="242.969" y="223.956" fill="#C7E6D7" width="11.7" height="3.9"/>
	<path fill="#C7E6D7" d="M231.624,139.621l-1.857-14.918l-13.111,8.191c4.814,1.162,9.813,3.262,15.015,6.727H231.624z"/>
	<rect x="242.969" y="208.356" fill="#C7E6D7" width="11.7" height="5.8"/>
	<rect x="153.368" y="190.856" fill="#C7E6D7" width="9.701" height="5.8"/>
	<rect x="153.368" y="255.056" fill="#C7E6D7" width="9.701" height="5.8"/>
	<path fill="#C7E6D7" d="M176.825,166.005l4.39,12.071c0.913-1.605,3.128-5.185,6.505-8.838L176.825,166.005z"/>
	<path fill="#C7E6D7" d="M188.709,150.715l1.184,16.345c2.382-2.233,5.195-4.317,8.414-5.825L188.709,150.715z"/>
	<rect x="153.368" y="243.356" fill="#C7E6D7" width="9.701" height="3.9"/>
	<path fill="#C7E6D7" d="M214.918,132.502l-4.022-14.108l-11.32,13.906c4.683-0.744,9.895-0.944,15.293,0.202H214.918z"/>
	<rect x="237.069" y="278.456" fill="#C7E6D7" width="23.399" height="9.7"/>
	<path fill="#C7E6D7" d="M192.692,119.724l-2.406,15.11c2.304-0.878,4.832-1.645,7.545-2.208L192.692,119.724z"/>
	<rect x="153.368" y="223.956" fill="#C7E6D7" width="9.701" height="3.9"/>
	<rect x="153.368" y="202.456" fill="#C7E6D7" width="9.701" height="7.8"/>
	<polygon fill="#C7E6D7" points="178.669,352.356 153.368,352.356 153.368,356.456 153.769,362.156 178.669,362.156 	"/>
	<polygon fill="#C7E6D7" points="184.569,580.156 169.069,580.156 169.669,589.856 184.569,589.856 	"/>
	<polygon fill="#C7E6D7" points="182.569,529.557 165.969,529.557 166.569,539.256 182.569,539.256 	"/>
	<polygon fill="#C7E6D7" points="186.469,605.456 170.868,605.456 170.868,610.756 171.269,617.156 186.469,617.156 	"/>
	<polygon fill="#C7E6D7" points="186.469,648.256 173.169,648.256 173.669,656.057 186.469,656.057 	"/>
	<path fill="#C7E6D7" d="M207.336,144.873l-6.438,15.322c1.447-0.492,2.947-0.888,4.531-1.088c2.674-0.335,5.364-0.165,8.1,0.5
		L207.336,144.873z"/>
	<polygon fill="#C7E6D7" points="186.469,628.856 171.969,628.856 172.469,636.656 186.469,636.656 	"/>
	<polygon fill="#C7E6D7" points="178.669,330.956 151.669,330.956 151.868,335.356 152.069,338.756 178.669,338.756 	"/>
	<polygon fill="#C7E6D7" points="176.769,403.057 157.269,403.057 157.269,409.456 157.569,412.756 176.769,412.756 	"/>
	<polygon fill="#C7E6D7" points="176.769,286.256 150.269,286.256 150.469,293.956 176.769,293.956 	"/>
	<rect x="242.969" y="523.756" fill="#C7E6D7" width="11.7" height="7.802"/>
	<rect x="240.969" y="299.856" fill="#C7E6D7" width="17.5" height="9.7"/>
	<rect x="240.969" y="340.756" fill="#C7E6D7" width="17.5" height="9.7"/>
	<rect x="240.969" y="389.356" fill="#C7E6D7" width="15.601" height="9.7"/>
	<rect x="240.969" y="323.156" fill="#C7E6D7" width="17.5" height="7.8"/>
	<rect x="239.069" y="367.956" fill="#C7E6D7" width="17.5" height="7.8"/>
	<rect x="240.969" y="496.456" fill="#C7E6D7" width="13.601" height="9.7"/>
	<rect x="240.969" y="414.656" fill="#C7E6D7" width="15.601" height="9.7"/>
	<rect x="240.969" y="463.356" fill="#C7E6D7" width="13.601" height="7.8"/>
	<rect x="240.969" y="436.057" fill="#C7E6D7" width="15.601" height="9.698"/>
	<path fill="#C7E6D7" d="M228.499,168.122l-1.139-17.441l-10.938,9.787c4.021,1.488,8.046,3.988,12.046,7.654H228.499z"/>
	<rect x="211.769" y="206.356" fill="#C7E6D7" width="3.9" height="5.8"/>
	<polygon fill="#C7E6D7" points="222.368,251.356 236.368,656.057 239.368,656.057 229.269,251.456 	"/>
	<rect x="211.769" y="221.956" fill="#C7E6D7" width="3.9" height="5.8"/>
	<rect x="211.769" y="177.156" fill="#C7E6D7" width="3.9" height="5.8"/>
	<rect x="165.069" y="504.256" fill="#C7E6D7" width="17.5" height="7.802"/>
	<rect x="211.769" y="190.856" fill="#C7E6D7" width="3.9" height="5.8"/>
	<rect x="168.969" y="550.956" fill="#C7E6D7" width="15.601" height="7.8"/>
	<polygon fill="#C7E6D7" points="186.969,253.656 203.169,652.156 210.469,652.156 194.069,253.156 	"/>
	<rect x="165.069" y="478.956" fill="#C7E6D7" width="17.5" height="7.8"/>
	<rect x="163.069" y="373.856" fill="#C7E6D7" width="15.601" height="9.7"/>
	<polygon fill="#C7E6D7" points="203.669,252.656 220.169,653.456 225.469,652.656 210.169,251.456 	"/>
	<rect x="163.069" y="430.256" fill="#C7E6D7" width="15.601" height="7.802"/>
	<path fill="#C7E6D7" d="M244.877,658.031V646.35h7.067l0.342-7.787h-7.409v-11.681h7.919l0.257-5.842h-8.176v-11.68h8.688
		l0.34-7.786h-9.027V586h9.711l0.426-9.732h-8.189v-11.682h8.701l0.256-5.839h-10.903v-11.681h11.415l16.088-367.44l-18.45-2.486
		l-22.144-98.424l-13.526-4.849l-1.233-60.2h-7.383L203.5,75.962h-15.992l-22.144,105.124h-18.455l3.293,103.175h28.49v11.68
		h-28.117l0.312,9.734h29.751v15.573h-29.254l0.246,7.787h29.008v11.682h-28.41l0.715,9.732h27.695v13.627h-26.691l2.719,37h22.027
		v13.628h-21.024l3.504,47.712v-12.671h19.468v13.628h-19.396l2.86,38.935h20.431v11.68h-19.568l0.4,5.499l0.492,8.1h18.676v13.628
		h-17.849l0.474,7.785h19.32v11.684h-18.611l1.063,17.52h17.548v13.627h-16.722l0.706,11.683h17.963v15.571h-17.018l0.475,7.788
		h16.543v11.68H172.59l0.474,7.786h15.363v11.684h-14.652l1.432,23.633l75.041,3.597l1.191-27.229h-6.562V658.031z M256.557,533.441
		h-15.573v-11.684h15.573V533.441z M256.557,508.133h-17.519v-13.626h17.519V508.133z M256.557,473.094h-17.519v-11.681h17.519
		V473.094z M258.504,447.786h-19.466v-13.627h19.466V447.786z M258.504,426.372h-19.466v-13.627h19.466V426.372z M258.504,401.064
		h-19.466v-13.626h19.466V401.064z M258.504,377.705H237.09v-11.681h21.414V377.705z M260.45,352.396h-21.412V338.77h21.412V352.396
		z M260.45,332.929h-21.412v-11.68h21.412V332.929z M260.45,311.516h-21.412v-13.627h21.412V311.516z M262.397,290.103h-27.254
		v-13.627h27.254V290.103z M258.504,249.221h-13.627v-7.787h13.627V249.221z M256.557,221.968v7.787h-15.573v-7.787H256.557z
		 M240.983,216.128v-9.734h15.573v9.734H240.983z M256.557,190.821v9.733h-15.573v-9.733H256.557z M248.771,184.98h-9.732v-9.733
		h9.732V184.98z M194.469,104.66l5.25-20.047l5.354,14.196l10.672-16.701l2.838,17.875l9.346-10.947l2.195,21.496
		c1.373,0.9,2.699,1.8,4.1,2.92l-1.717,2.172c-20.105-15.893-41.463-6.385-41.674-6.284l-1.155-2.517
		c0.067-0.032,2.274-1.011,5.903-1.868L194.469,104.66z M189.875,134.992l-2.356-0.373l4.021-25.268l7.604,19.093l12.956-15.917
		l4.828,16.933l15.047-9.403l2.709,21.76c2.226,1.7,4.5,3.6,6.7,5.88l-1.958,1.958c-31.03-31.035-60.378-5.654-61.614-4.557
		l-1.841-2.068c0.134-0.074,5.498-4.774,13.897-8.038H189.875z M151.435,188.873h13.627v9.734h-13.627V188.873z M151.435,200.556
		h13.627v11.681h-13.627v-11.684V200.556z M151.435,221.968h13.627v7.787h-13.627V221.968z M151.435,241.435h13.627v7.787h-13.627
		V241.435z M151.435,253.115h13.627v9.734h-13.627V253.115z M174.796,244.062v30.467h-19.467v-1.947h17.52v-30.173l57.359-9.346
		l0.818-58.502c-8.564-9.469-17.06-13.735-25.25-12.707c-12.931,1.635-21.309,16.041-22.445,18.111l-3.67,59.359l-2.767-0.171
		l3.709-59.955l0.134-0.258c0.004-0.008,0.022-0.043,0.027-0.055l-1.943,0.708l-6.476-17.806l14.705,4.365l-1.683-23.206
		l13.535,14.8l8.435-20.072l8.272,19.764l14.142-12.655l1.702,26.154c0.666,0.7,1.301,1.4,2,2.14l0.356,0.4l-0.827,59.09
		l4.107-0.669v27.866l20.977,0.224l0.184,1.947l-23.104-0.243v-27.505L174.796,244.062z M202.049,194.714v7.786h-5.839v-7.786
		H202.049z M196.21,186.927v-7.787h5.839v7.787H196.21z M202.049,210.287v5.84h-5.839v-5.84H202.049z M202.049,221.968v9.733h-5.839
		v-9.733H202.049z M217.624,188.873v9.734h-7.787v-9.734H217.624z M209.837,184.98v-9.733h7.787v9.733H209.837z M217.624,204.447
		v9.734h-7.787v-9.734H217.624z M217.624,220.021v9.733h-7.787v-9.733H217.624z M161.168,385.491v-13.627h19.468v13.627H161.168z
		 M161.168,439.999v-11.68h19.468v11.68H161.168z M184.53,488.666h-21.414v-11.679h21.414V488.666z M201.329,654.137l-16.381-402.28
		l11.019-0.758l0.043,1l16.503,402.04L201.329,654.137L201.329,654.137z M217.563,656.633l-0.062-1.546l-16.657-404.688
		l11.979-2.198l15.49,406.8L217.563,656.633z M234.538,658.031l-0.033-0.94l-14.176-407.674l10.877,0.053l0.022,0.945
		l10.177,407.616H234.538z"/>
	<polygon fill="#C7E6D7" points="246.868,656.057 251.569,656.057 251.868,648.256 246.868,648.256 	"/>
	<polygon fill="#C7E6D7" points="246.868,556.756 255.868,556.756 256.169,549.057 246.868,549.057 	"/>
	<polygon fill="#C7E6D7" points="246.868,599.656 253.969,599.656 254.469,587.956 246.868,587.956 	"/>
	<rect x="197.368" y="212.256" fill="#C7E6D7" width="1.899" height="1.9"/>
	<polygon fill="#C7E6D7" points="246.868,619.057 253.169,619.057 253.469,611.356 246.868,611.356 	"/>
	<rect x="197.368" y="181.056" fill="#C7E6D7" width="1.899" height="3.9"/>
	<polygon fill="#C7E6D7" points="246.868,636.656 252.368,636.656 252.669,628.856 246.868,628.856 	"/>
	<rect x="151.469" y="307.656" fill="#C7E6D7" width="27.3" height="11.7"/>
	<rect x="163.069" y="451.656" fill="#C7E6D7" width="15.601" height="9.7"/>
	<rect x="197.368" y="196.656" fill="#C7E6D7" width="1.899" height="3.9"/>
	<rect x="198.169" y="223.956" fill="#C7E6D7" width="1.9" height="5.8"/>
	<polygon fill="#C7E6D7" points="248.769,574.356 255.069,574.356 255.469,566.557 248.769,566.557 	"/>
</g>
<path fill="#E33E57" d="M148.352,5.326c-0.09,0-0.271-0.14-0.399-0.231c0-0.045,0-0.045-0.055-0.045
	c-0.533-3.144-4.49-5.526-7.865-6.158c-0.041,0-0.262,0-0.312-0.042c-0.132-0.043-0.312-0.087-0.449-0.136
	c-1.435-3.011-4.541-5.12-8.131-5.12c-4.825,0-9.279,3.813-9.339,8.535c-0.01,0.001-0.019,0.001-0.03,0.002
	c-0.099-1.971-3.212-3.281-5.602-3.281c-4.136,0-7.779,3.686-7.779,8.226c0,0.091-0.046,0.224-0.174,0.313
	c-0.678-2.97-6.389-4.809-10.61-4.809c-7.504,0-13.482,5.28-13.482,12.783c0,6.169,4.107,12.042,9.611,12.265
	c-0.297,0.806-0.463,1.659-0.463,2.543c0,4.965,5.035,8.991,11.246,8.991c1.115,0,2.19-0.134,3.208-0.377
	c1.98,2.584,4.831,4.516,8.309,4.516c4.452,0,8.201-2.378,9.958-6.156c2.064,3.375,5.791,5.752,10.051,5.752
	c6.654,0,12.018-5.752,12.018-12.404c0-2.697-0.934-3.191-2.507-7.687c0.901,0,1.894,0.992,2.931,0.992
	c5.119,0,9.258-3.645,9.258-8.726C157.743,9.948,153.473,5.326,148.352,5.326z"/>
<path fill="#E33E57" d="M66.684,53.413c-0.092,0-0.223-0.135-0.359-0.224c0-0.042,0-0.042-0.046-0.042
	c-0.496-2.787-3.959-4.853-6.921-5.444c-0.047,0-0.273,0-0.316-0.039c-0.093,0-0.269-0.046-0.358-0.091
	c-1.309-2.655-4.357-4.539-7.508-4.539c-3.797,0-7.493,2.69-8.389,6.239c-0.142,0.115-0.282,0.23-0.409,0.359
	c-0.036,0.023-0.074,0.032-0.106,0.056c-0.668-1.266-2.6-2.024-4.357-2.024c-3.687,0-6.695,3.279-6.695,7.279
	c0,0.059-0.035,0.115-0.06,0.172c-0.224-0.048-0.456-0.07-0.692-0.074c-0.88-2.496-5.32-4.05-8.907-4.05
	c-6.702,0-11.782,4.198-11.782,10.85c0,4.485,2.605,8.54,6.251,9.911c-0.696,1.091-1.095,2.303-1.095,3.585
	c0,4.718,5.263,8.543,11.755,8.543c1.225,0,2.406-0.136,3.517-0.39c1.872,1.791,4.524,3.171,7.082,3.171
	c3.908,0,7.686-1.969,9.216-5.298c1.84,2.969,5.348,5.131,9.074,5.131c5.891,0,10.746-5.033,10.746-10.92
	c0-2.384-0.763-2.742-2.159-6.741c0.81,0,1.708,0.897,2.605,0.897c4.541,0,8.183-3.238,8.183-7.732
	C74.954,57.505,71.221,53.413,66.684,53.413z"/>
</svg>
