<svg version="1.1" xmlns="http://www.w3.org/2000/svg" xmlns:xlink="http://www.w3.org/1999/xlink"
	 viewBox="0 0 134.9 118.1">
	<g>
		<path fill="#E33F58" d="M100.1,116.1l2.9-4.8c0.4,0.4,1.1,0.7,1.7,0.7c0.9,0,1.5-0.6,1.5-1.6V90.9h7v19c0,4.8-3.1,8.2-7.6,8.2
			C103.6,118.1,101.6,117.4,100.1,116.1z M106.2,89.3v-5.9h7v5.9H106.2z"/>
		<path fill="#E33F58" d="M116.3,108.4l2.7-4.8c2.7,1.4,5.2,2.2,7.3,2.2c1.3,0,1.9-0.3,1.9-0.9c0-0.7-0.8-1-3.6-1.7
			c-5.5-1.4-7.3-2.9-7.3-5.8c0-4,3.5-6.8,8.3-6.8c2.6,0,5.7,0.8,8.8,2.2l-2.7,4.5c-2.7-1.3-4.4-1.8-6.1-1.8c-1.1,0-1.8,0.3-1.8,1
			c0,0.7,0.7,1.1,3.3,1.7c6,1.5,7.8,3,7.8,6.2c0,4-3.3,6.5-8.5,6.5C123.2,110.8,118.8,109.8,116.3,108.4z"/>
	</g>
	<g>
		<path fill="#FFFFFF" d="M59.4,14.6c-1.8-5-3.6-9.7-5.4-14.1L53.7,0h-9.5l-0.2,0.5c-1.7,4.4-3.5,9.1-5.4,14
			c-1.9,4.9-3.7,10.4-5.5,16.4l-0.3,1h9.7l1.7-7h8.9l1.8,7h9.9l-0.3-1C62.9,25,61.2,19.6,59.4,14.6z M48.5,10.2
			c0.1-0.3,0.2-0.7,0.4-1c0.1,0.4,0.2,0.7,0.4,1c0.3,1,0.7,2,1,3c0.3,1,0.6,2,0.8,3c0.2,0.7,0.3,1.4,0.5,2.2h-5.4
			c0.2-0.7,0.4-1.4,0.5-2.1c0.3-1,0.6-2,0.9-3C47.8,12.2,48.1,11.2,48.5,10.2z"/>
		<path fill="#FFFFFF" d="M76.9,13.6c1.8,2.6,3.5,5.2,5.1,7.8c2,3.3,3.9,6.7,5.6,10l0.2,0.4h7.5V0h-8.5v16.3
			c-0.3-0.5-0.5-0.9-0.8-1.4c-0.9-1.6-2-3.2-3.1-4.9c-1.1-1.7-2.2-3.3-3.4-5c-1.2-1.7-2.3-3.3-3.5-4.7L75.8,0h-7.4v31.8h8.5V13.6z"
			/>
		<polygon fill="#FFFFFF" points="1.2,38.9 1.2,70.8 10.5,70.8 10.5,58.5 19,58.5 19,70.8 28.3,70.8 28.3,38.9 19,38.9 19,50.9
			10.5,50.9 10.5,38.9 		"/>
		<path fill="#FFFFFF" d="M59.4,53.6c-1.8-5-3.6-9.7-5.4-14.1l-0.2-0.5h-9.5l-0.2,0.5c-1.7,4.4-3.5,9.1-5.4,14
			c-1.9,4.9-3.7,10.4-5.5,16.4l-0.3,1h9.7l1.7-7h8.9l1.8,7h9.9l-0.3-1C62.9,64,61.2,58.5,59.4,53.6z M48.5,49.1
			c0.1-0.3,0.2-0.7,0.4-1c0.1,0.4,0.2,0.7,0.4,1c0.3,1,0.7,2,1,3c0.3,1,0.6,2,0.8,3c0.2,0.7,0.3,1.4,0.5,2.2h-5.4
			c0.2-0.7,0.4-1.4,0.5-2.1c0.3-1,0.6-2,0.9-3C47.8,51.1,48.1,50.1,48.5,49.1z"/>
		<polygon fill="#FFFFFF" points="67.1,38.9 67.1,47.6 77.2,47.6 77.2,70.8 86.5,70.8 86.5,47.6 96.7,47.6 96.7,38.9 		"/>
		<polygon fill="#FFFFFF" points="0,86.5 10.1,86.5 10.1,109.7 19.5,109.7 19.5,86.5 29.6,86.5 29.6,77.8 0,77.8 		"/>
		<path fill="#FFFFFF" d="M59.4,92.5c-1.8-5-3.6-9.7-5.4-14.1l-0.2-0.5h-9.5l-0.2,0.5c-1.7,4.4-3.5,9.1-5.4,14
			c-1.9,4.9-3.7,10.4-5.5,16.4l-0.3,1h9.7l1.7-7h8.9l1.8,7h9.9l-0.3-1C62.9,102.9,61.2,97.4,59.4,92.5z M48.5,88
			c0.1-0.3,0.2-0.7,0.4-1c0.1,0.4,0.2,0.7,0.4,1c0.3,1,0.7,2,1,3c0.3,1,0.6,2,0.8,3c0.2,0.7,0.3,1.4,0.5,2.2h-5.4
			c0.2-0.7,0.4-1.4,0.5-2.1c0.3-1,0.6-2,0.9-3C47.8,90,48.1,89,48.5,88z"/>
		<path fill="#FFFFFF" d="M86.8,94.2c-0.3-0.5-0.5-0.9-0.8-1.4c-0.9-1.6-2-3.2-3.1-4.9c-1.1-1.7-2.2-3.3-3.4-5
			c-1.2-1.7-2.3-3.3-3.5-4.7l-0.2-0.3h-7.4v31.8h8.5V91.4c1.8,2.6,3.5,5.2,5.1,7.8c2,3.3,3.9,6.7,5.6,10l0.2,0.4h7.5V77.8h-8.5V94.2
			z"/>
		<path fill="#FFFFFF" d="M21.4,31.9V15.1L16.7,27h-4.1L8.4,15l0,16.9H0.1V0h8.6l5.9,15l5.8-15h9.2v31.9H21.4z"/>
	</g>
</svg>
