<?xml version="1.0" encoding="utf-8"?>
<!-- Generator: Adobe Illustrator 16.2.1, SVG Export Plug-In . SVG Version: 6.00 Build 0)  -->
<!DOCTYPE svg PUBLIC "-//W3C//DTD SVG 1.1//EN" "http://www.w3.org/Graphics/SVG/1.1/DTD/svg11.dtd">
<svg version="1.1" id="Layer_1" xmlns="http://www.w3.org/2000/svg" xmlns:xlink="http://www.w3.org/1999/xlink" x="0px" y="0px"
	 width="293.414px" height="714px" viewBox="0 0 293.414 714" enable-background="new 0 0 293.414 714" xml:space="preserve">
<g>
	<rect x="235.015" y="204.038" fill="#C7E6D7" width="5.84" height="5.839"/>
	<path fill="#C7E6D7" d="M221.199,135.668l-1.334-13.069l-8.016,9.386C214.891,132.788,218.03,133.98,221.199,135.668z"/>
	<path fill="#C7E6D7" d="M210.582,131.667l-2.395-15.084l-8.928,13.964C202.704,130.455,206.537,130.73,210.582,131.667z"/>
	<path fill="#C7E6D7" d="M194.226,120.563l-2.842,10.859c1.932-0.379,4.161-0.695,6.624-0.828L194.226,120.563z"/>
	<rect x="240.854" y="270.225" fill="#C7E6D7" width="9.733" height="3.894"/>
	<rect x="236.96" y="219.611" fill="#C7E6D7" width="11.682" height="5.84"/>
	<rect x="236.96" y="250.758" fill="#C7E6D7" width="11.682" height="3.893"/>
	<path fill="#C7E6D7" d="M225.655,166.465l-1.857-14.918l-13.111,8.191C215.501,160.913,220.528,163.041,225.655,166.465z"/>
	<rect x="236.96" y="235.185" fill="#C7E6D7" width="11.682" height="5.84"/>
	<rect x="147.414" y="217.665" fill="#C7E6D7" width="9.732" height="5.84"/>
	<rect x="147.414" y="281.905" fill="#C7E6D7" width="9.732" height="5.841"/>
	<path fill="#C7E6D7" d="M170.857,192.849l4.389,12.071c0.913-1.605,3.128-5.185,6.505-8.838L170.857,192.849z"/>
	<path fill="#C7E6D7" d="M182.74,177.559l1.184,16.345c2.381-2.233,5.195-4.317,8.414-5.825L182.74,177.559z"/>
	<rect x="147.414" y="270.225" fill="#C7E6D7" width="9.732" height="3.894"/>
	<path fill="#C7E6D7" d="M208.949,159.346l-4.022-14.108l-11.321,13.906C198.288,158.36,203.461,158.25,208.949,159.346z"/>
	<rect x="231.121" y="305.267" fill="#C7E6D7" width="23.361" height="9.733"/>
	<path fill="#C7E6D7" d="M186.723,146.568l-2.406,15.11c2.303-0.878,4.833-1.645,7.545-2.208L186.723,146.568z"/>
	<rect x="147.414" y="250.758" fill="#C7E6D7" width="9.732" height="3.893"/>
	<rect x="147.414" y="229.344" fill="#C7E6D7" width="9.732" height="7.787"/>
	<polygon fill="#C7E6D7" points="172.721,379.24 147.414,379.24 147.414,383.282 147.831,388.975 172.721,388.975 	"/>
	<polygon fill="#C7E6D7" points="178.561,607.006 163.076,607.006 163.665,616.74 178.561,616.74 	"/>
	<polygon fill="#C7E6D7" points="176.613,556.391 160.006,556.391 160.595,566.125 176.613,566.125 	"/>
	<polygon fill="#C7E6D7" points="180.507,632.313 164.934,632.313 164.934,637.626 165.32,643.992 180.507,643.992 	"/>
	<polygon fill="#C7E6D7" points="180.507,675.141 167.209,675.141 167.683,682.927 180.507,682.927 	"/>
	<path fill="#C7E6D7" d="M201.367,171.717l-6.438,15.322c1.447-0.492,2.947-0.888,4.531-1.088c2.674-0.335,5.364-0.165,8.062,0.477
		L201.367,171.717z"/>
	<polygon fill="#C7E6D7" points="180.507,655.673 166.027,655.673 166.5,663.461 180.507,663.461 	"/>
	<polygon fill="#C7E6D7" points="172.721,357.827 145.724,357.827 145.861,362.172 146.115,365.613 172.721,365.613 	"/>
	<polygon fill="#C7E6D7" points="170.774,429.855 151.308,429.855 151.308,436.263 151.55,439.589 170.774,439.589 	"/>
	<polygon fill="#C7E6D7" points="170.774,313.053 144.294,313.053 144.543,320.84 170.774,320.84 	"/>
	<rect x="236.96" y="550.552" fill="#C7E6D7" width="11.682" height="7.786"/>
	<rect x="235.015" y="326.68" fill="#C7E6D7" width="17.521" height="9.733"/>
	<rect x="235.015" y="367.562" fill="#C7E6D7" width="17.521" height="9.733"/>
	<rect x="235.015" y="416.228" fill="#C7E6D7" width="15.573" height="9.734"/>
	<rect x="235.015" y="350.041" fill="#C7E6D7" width="17.521" height="7.786"/>
	<rect x="233.069" y="394.814" fill="#C7E6D7" width="17.519" height="7.787"/>
	<rect x="235.015" y="523.297" fill="#C7E6D7" width="13.627" height="9.732"/>
	<rect x="235.015" y="441.536" fill="#C7E6D7" width="15.573" height="9.733"/>
	<rect x="235.015" y="490.205" fill="#C7E6D7" width="13.627" height="7.784"/>
	<rect x="235.015" y="462.949" fill="#C7E6D7" width="15.573" height="9.734"/>
	<path fill="#C7E6D7" d="M222.53,194.966l-1.138-17.441l-10.938,9.787C214.475,188.791,218.508,191.343,222.53,194.966z"/>
	<rect x="205.814" y="233.238" fill="#C7E6D7" width="3.893" height="5.84"/>
	<polygon fill="#C7E6D7" points="216.375,278.219 230.449,682.927 233.439,682.927 223.34,278.254 	"/>
	<rect x="205.814" y="248.812" fill="#C7E6D7" width="3.893" height="5.84"/>
	<rect x="205.814" y="204.038" fill="#C7E6D7" width="3.893" height="5.839"/>
	<rect x="159.093" y="531.085" fill="#C7E6D7" width="17.521" height="7.786"/>
	<rect x="205.814" y="217.665" fill="#C7E6D7" width="3.893" height="5.84"/>
	<rect x="162.986" y="577.806" fill="#C7E6D7" width="15.574" height="7.787"/>
	<polygon fill="#C7E6D7" points="181.001,280.515 197.231,679.033 204.516,679.033 188.135,280.022 	"/>
	<rect x="159.093" y="505.776" fill="#C7E6D7" width="17.521" height="7.787"/>
	<rect x="157.146" y="400.654" fill="#C7E6D7" width="15.574" height="9.734"/>
	<polygon fill="#C7E6D7" points="197.737,279.531 214.232,680.271 219.482,679.462 204.208,278.345 	"/>
	<rect x="157.146" y="457.109" fill="#C7E6D7" width="15.574" height="7.786"/>
	<path fill="#C7E6D7" d="M238.908,684.875v-11.682h7.068l0.342-7.787h-7.41v-11.679h7.919l0.257-5.842h-8.176v-11.68h8.688
		l0.341-7.786h-9.028v-15.574h9.711l0.426-9.734h-8.19v-11.68h8.702l0.256-5.839h-10.904v-11.681h11.415l16.088-367.44l-18.45-2.486
		l-22.144-98.424l-13.526-4.849l-1.233-60.2h-7.383l-6.147,62.295h-15.992l-22.142,105.123h-18.455l3.293,103.175h28.489v11.68
		h-28.116l0.312,9.734h29.751v15.573h-29.254l0.246,7.787h29.008v11.681h-28.41l0.714,9.733h27.696v13.627h-26.693l2.72,36.986
		h22.027v13.628h-21.025l3.504,47.712v-12.671h19.468v13.628h-19.396l2.86,38.933h20.43v11.68h-19.569l0.402,5.499l0.492,8.128
		h18.675v13.628h-17.848l0.474,7.785h19.32v11.682h-18.611l1.063,17.52h17.548v13.627h-16.722l0.706,11.682h17.963v15.572h-17.018
		l0.475,7.788h16.543v11.679h-15.837l0.473,7.787h15.364v11.682h-14.653l1.433,23.633l75.04,3.597l1.192-27.229H238.908z
		 M250.588,560.285h-15.573v-11.682h15.573V560.285z M250.588,534.977h-17.519v-13.626h17.519V534.977z M250.588,499.938h-17.519
		v-11.681h17.519V499.938z M252.535,474.63h-19.466v-13.627h19.466V474.63z M252.535,453.216h-19.466v-13.627h19.466V453.216z
		 M252.535,427.908h-19.466v-13.626h19.466V427.908z M252.535,404.549h-21.414v-11.681h21.414V404.549z M254.482,379.24h-21.413
		v-13.627h21.413V379.24z M254.482,359.773h-21.413v-11.68h21.413V359.773z M254.482,338.36h-21.413v-13.627h21.413V338.36z
		 M256.429,316.947h-27.254v-13.627h27.254V316.947z M252.535,276.065h-13.627v-7.787h13.627V276.065z M250.588,248.812v7.787
		h-15.573v-7.787H250.588z M235.015,242.972v-9.734h15.573v9.734H235.015z M250.588,217.665v9.733h-15.573v-9.733H250.588z
		 M242.802,211.824h-9.732v-9.733h9.732V211.824z M188.5,131.504l5.25-20.047l5.355,14.196l10.672-16.701l2.837,17.875l9.346-10.947
		l2.195,21.496c1.373,0.871,2.747,1.839,4.117,2.92l-1.717,2.172c-20.106-15.893-41.463-6.385-41.674-6.284l-1.155-2.517
		c0.068-0.032,2.275-1.011,5.904-1.868L188.5,131.504z M183.906,161.836l-2.356-0.373l4.021-25.268l7.604,19.093l12.956-15.917
		l4.828,16.933l15.047-9.403l2.709,21.76c2.225,1.705,4.46,3.64,6.702,5.88l-1.958,1.958c-31.03-31.035-60.378-5.654-61.614-4.557
		l-1.841-2.068C170.136,169.759,175.452,165.146,183.906,161.836z M145.466,215.717h13.627v9.734h-13.627V215.717z M145.466,227.397
		h13.627v11.681h-13.627V227.397z M145.466,248.812h13.627v7.787h-13.627V248.812z M145.466,268.279h13.627v7.787h-13.627V268.279z
		 M145.466,279.959h13.627v9.734h-13.627V279.959z M168.827,270.906v30.467H149.36v-1.947h17.52v-30.173l57.359-9.346l0.818-58.502
		c-8.564-9.469-17.058-13.735-25.25-12.707c-12.929,1.635-21.307,16.041-22.444,18.111l-3.671,59.359l-2.765-0.171l3.709-59.955
		l0.133-0.258c0.004-0.008,0.023-0.043,0.028-0.055l-1.944,0.708l-6.475-17.806l14.705,4.365l-1.682-23.206l13.536,14.842
		l8.433-20.072l8.273,19.764l14.141-12.655l1.703,26.154c0.667,0.687,1.331,1.395,1.995,2.14l0.357,0.4l-0.828,59.09l4.108-0.669
		v27.866l20.976,0.224l0.183,1.947l-23.104-0.243v-27.505L168.827,270.906z M196.08,221.558v7.786h-5.839v-7.786H196.08z
		 M190.241,213.771v-7.787h5.839v7.787H190.241z M196.08,237.131v5.84h-5.839v-5.84H196.08z M196.08,248.812v9.733h-5.839v-9.733
		H196.08z M211.655,215.717v9.734h-7.787v-9.734H211.655z M203.868,211.824v-9.733h7.787v9.733H203.868z M211.655,231.291v9.734
		h-7.787v-9.734H211.655z M211.655,246.865v9.733h-7.787v-9.733H211.655z M155.199,412.335v-13.627h19.468v13.627H155.199z
		 M155.199,466.843v-11.68h19.468v11.68H155.199z M178.561,515.51h-21.414v-11.679h21.414V515.51z M195.36,680.98L178.979,278.7
		l11.019-0.758l0.043,1l16.503,402.038H195.36z M211.595,683.477l-0.064-1.546l-16.657-404.688l11.978-2.198l15.492,406.778
		L211.595,683.477z M228.569,684.875l-0.033-0.94L214.36,276.261l10.878,0.053l0.023,0.945l10.176,407.616H228.569z"/>
	<polygon fill="#C7E6D7" points="240.854,682.927 245.551,682.927 245.892,675.141 240.854,675.141 	"/>
	<polygon fill="#C7E6D7" points="240.854,583.645 249.896,583.645 250.238,575.857 240.854,575.857 	"/>
	<polygon fill="#C7E6D7" points="240.854,626.473 248.022,626.473 248.533,614.792 240.854,614.792 	"/>
	<rect x="191.382" y="239.078" fill="#C7E6D7" width="1.946" height="1.947"/>
	<polygon fill="#C7E6D7" points="240.854,645.939 247.17,645.939 247.512,638.152 240.854,638.152 	"/>
	<rect x="191.382" y="207.931" fill="#C7E6D7" width="1.946" height="3.893"/>
	<polygon fill="#C7E6D7" points="240.854,663.461 246.402,663.461 246.745,655.673 240.854,655.673 	"/>
	<rect x="145.466" y="334.466" fill="#C7E6D7" width="27.255" height="11.682"/>
	<rect x="157.146" y="478.523" fill="#C7E6D7" width="15.574" height="9.733"/>
	<rect x="191.382" y="223.505" fill="#C7E6D7" width="1.946" height="3.893"/>
	<rect x="192.188" y="250.758" fill="#C7E6D7" width="1.947" height="5.84"/>
	<polygon fill="#C7E6D7" points="242.802,601.165 249.13,601.165 249.47,593.378 242.802,593.378 	"/>
</g>
<g>
	<g>
		<path fill="#E33E57" d="M115.188,29.696c0,0.087,0,0.18,0.043,0.272c0.136-0.092,0.228-0.185,0.361-0.272
			c-0.042-0.137,0.319-0.316,0.319-0.452v-0.092C115.642,29.335,115.414,29.472,115.188,29.696z M110.269,36.874
			c0.092-0.366,0.222-0.725,0.358-1.086c-0.175,0.317-0.266,0.677-0.399,1.037C110.269,36.824,110.269,36.874,110.269,36.874z
			 M109.145,35.517c-1.046-1.085-2.217-1.762-3.658-1.848C106.886,33.892,108.147,34.525,109.145,35.517z M101.787,34.346
			l0.544-0.273c0-0.087,0-0.181-0.045-0.272C102.194,33.985,101.924,34.166,101.787,34.346z"/>
	</g>
	<g>
		<path fill="#E33E57" d="M110.228,36.824c0.041,0,0.041,0.049,0.041,0.049c0.092-0.366,0.222-0.725,0.358-1.086
			C110.452,36.105,110.361,36.464,110.228,36.824z M109.145,35.517c-1.046-1.085-2.217-1.762-3.658-1.848
			C106.886,33.892,108.147,34.525,109.145,35.517z M101.787,34.346l0.544-0.273c0-0.087,0-0.181-0.045-0.272
			C102.194,33.985,101.924,34.166,101.787,34.346z M101.605,34.616c0-0.091,0.045-0.137,0.09-0.229c0,0-0.045,0-0.09,0.044V34.616z"
			/>
	</g>
	<g>
		<path fill="#E33E57" d="M142.578,31.73c-0.09,0-0.271-0.141-0.401-0.232c0-0.046,0-0.046-0.052-0.046
			c-0.536-3.156-4.51-5.547-7.897-6.183c-0.042,0-0.263,0-0.314-0.042c-0.133-0.044-0.313-0.087-0.45-0.137
			c-1.441-3.023-4.56-5.141-8.164-5.141c-4.878,0-9.387,3.878-9.387,8.663c0-2.033-3.205-3.386-5.644-3.386
			c-4.15,0-7.809,3.7-7.809,8.258c0,0.091-0.045,0.224-0.174,0.313c0.045,0.091,0.045,0.185,0.045,0.272
			c0.312-0.087,0.582-0.181,0.9-0.272c-0.457,0.135-0.817,0.314-0.855,0.497c0-0.088,0-0.131-0.045-0.225l-0.544,0.273
			c0.137-0.18,0.408-0.36,0.499-0.545c-0.681-2.98-6.415-4.826-10.652-4.826c-7.534,0-13.536,5.729-13.536,13.262
			c0,6.315,4.283,12.764,9.971,12.764h0.044c0.18,0,0.361,0.952,0.54,1.361c0.544-0.183,1.312-0.811,2.124-0.811
			c-0.724,0-0.75,1.717-1.423,0.317c-0.137,0.044,0.061-0.042,0.061-0.042c0,0.043,0,0.043,0,0.085c0,0.274,0,0,0,0.274
			c0,4.875,4.229,8.304,9.141,8.304c0.989,0-0.958,2.03,2.792-0.048c-0.136-0.177-0.439-0.359-0.527-0.542
			c0-0.045,0.619-0.721,0.749-0.989c0,0.445,0.847,0.806,0.847,1.125v0.092c0,0.136-0.794,0.224-0.969,0.313
			c1.99,3.026,4.955,5.415,8.835,5.415c4.47,0,8.16-2.388,9.924-6.181c2.072,3.388,5.776,5.776,10.055,5.776
			c6.682,0,12.048-5.776,12.048-12.454c0-2.708-0.946-3.204-2.525-7.717c0.904,0,1.896,0.996,2.935,0.996
			c5.14,0,9.294-3.659,9.294-8.759C152.011,36.371,147.722,31.73,142.578,31.73z M101.605,34.432c0.045-0.044,0.09-0.044,0.09-0.044
			c-0.045,0.092-0.09,0.138-0.09,0.229V34.432z M100.159,64.807c-0.042-0.094-0.086-0.138-0.086-0.233
			c0.043,0.095,0.086,0.139,0.133,0.233H100.159z M99.755,54.152c0.044-0.089,0.09-0.18,0.135-0.266
			c0.045-0.051,0.045-0.093,0.089-0.137c0.095,0,0.228,0,0.364-0.044C100.159,53.886,99.979,54.016,99.755,54.152z M100.479,53.612
			c0.627-0.45,1.216-0.948,1.715-1.536C101.65,52.755,101.106,53.345,100.479,53.612z M103.415,50.586
			c-0.184,0.274-0.412,0.592-0.64,0.814c-0.041,0.047-0.087,0.093-0.132,0.137c0.045-0.044,0.092-0.137,0.092-0.181
			c0.269-0.359,0.449-0.633,0.681-0.946c-0.137-0.181-0.274-0.134-0.456-0.229c0.406-0.316,0.808-0.584,1.22-0.812
			C103.905,49.778,103.684,50.181,103.415,50.586z M104.414,40.077l0.807,0.177c-0.045-0.088,0.378-0.138,0.333-0.177
			c-0.264,0-0.462,0.126-0.509,0.081c-1.308-0.991-2.759-2.158-3.258-4.158h-0.373v-1.159c0,0.312,0.281,1.159,0.373,1.159h1.397
			c0.094,0-0.77-0.258-0.77-0.212v-0.046c0-0.359,0.77,0.258,0.727,0.258h0.042c1.038,0,2.303,2.308,2.71,4.069
			c0.045,0.223-0.7-0.019-0.7,0.204l-0.78-0.293v1.091l0,0V40.077z M105.487,33.669c1.44,0.085,2.612,0.762,3.658,1.848
			C108.147,34.525,106.886,33.892,105.487,33.669z M110.269,36.874c0,0,0-0.049-0.041-0.049c0.133-0.36,0.224-0.719,0.399-1.037
			C110.491,36.148,110.361,36.508,110.269,36.874z M117.985,32.271c-0.137,0-0.225-0.046-0.316-0.095
			c-0.045,0.186-0.132,0.409-0.184,0.591c-0.128-0.274-0.22-0.496-0.357-0.77c-1.44-0.675-1.851-1.354-1.896-2.028
			c-0.043-0.092,0.208-0.185,0.208-0.272c0.226-0.224,0.975-0.361,0.975-0.544V28.7c0,0.045,0.108,0.137,0.514,0.182
			c0.59,0.136,0.866,0.227,1.094,0.362c0,0.228-0.238,0.452-0.335,0.676c0.632,0.633,0.329,1.401,0.067,2.169
			c0.174,0.086,0.385,0.181,0.608,0.312C118.228,32.361,118.079,32.312,117.985,32.271z M135.174,47h-0.038h-0.045
			c-0.046,0-0.046,0-0.09,0h-0.093c0,0,0-0.278-0.043-0.278c0,0,0.043-0.214,0.043-0.352c0,0,0.067,0.038,0.025,0.038
			c-0.183-0.408-0.519-0.74-0.519-1.143v-0.23c-1-0.177-2.259-1.035-2.799-1.035h2.799c0,0,0,0.812,0,0.858v0.177
			c0,0.183,0.519,0.455,1.06,0.681c0.046,0-0.26,0.09-0.26,0.09c0.045,0.045-0.108,0.045-0.061,0.045
			c-0.048,0.137-0.124,0.484-0.169,0.57c0.093,0.138,0.107,0.58,0.289,0.58C135.221,47,135.221,47,135.174,47z M135.001,45.805
			c0-0.137,0.043-0.229,0.043-0.181l0.046-0.855h0.045c0.038,0,0.085,0.946,0.137,0.946
			C135.136,45.668,135.044,45.805,135.001,45.805z"/>
	</g>
	<g>
		<path fill="#E33E57" d="M23.812,108.89c-0.137-0.183-0.228-0.272-0.228-0.451c-0.044,0-0.044,0-0.044-0.047
			c0,0-0.179-0.132-0.453-0.27c-0.361-0.132-1.177-0.407-1.177-0.542c-0.086,0.409-1.497,0.679-1.497,0.947v0.091
			c0,0.089,1.634,0.181,1.497,0.272c0.137,0.182,0.451,0.361,0.587,0.54c0.091-0.042,0.316-0.09,0.453-0.178c0,0,0.091,0,0.14-0.043
			c-0.049-0.094-0.071-0.136-0.071-0.18c0.045,0.044,0.106,0.086,0.148,0.18C23.35,109.114,23.585,109.028,23.812,108.89z"/>
	</g>
	<g>
		<path fill="#E33E57" d="M23.812,108.89c-0.137-0.183-0.228-0.272-0.228-0.451c0,0,0.044-0.047,0.091-0.091
			c-0.183-0.045-0.359-0.273-0.497-0.273h-0.042l-0.049,0.047c-0.135,0.09-0.27,0.722-0.407,0.722
			c0.092,0.137,0.225,0.27,0.362,0.407c0,0,0.045,0,0.094-0.043c-0.049-0.094-0.094-0.136-0.094-0.18
			c0.045,0.044,0.094,0.086,0.136,0.18C23.362,109.114,23.585,109.028,23.812,108.89z"/>
	</g>
	<g>
		<path fill="#E33E57" d="M60.589,80.007c-0.093,0-0.225-0.134-0.361-0.224c0-0.042,0-0.042-0.046-0.042
			c-0.498-2.798-3.975-4.873-6.948-5.465c-0.048,0-0.273,0-0.317-0.04c-0.093,0-0.27-0.046-0.359-0.091
			c-1.313-2.666-4.374-4.557-7.538-4.557c-3.878,0-7.67,2.792-8.482,6.448c-0.093,0.41-0.183,0.815-0.183,1.22
			c0-0.363-0.09-0.676-0.273-0.988c-0.671-1.271-2.61-2.032-4.374-2.032c-3.702,0-6.723,3.292-6.723,7.307
			c0,0.364-0.588,0.676-0.588,0.996c0-3.026-5.094-4.964-9.109-4.964c-6.728,0-11.829,4.758-11.829,11.436
			c0,5.553,3.975,10.989,8.984,10.989h0.041c0.137,0,0.319,1.148,0.45,1.469c0.498-0.183,1.176-0.596,1.897-0.596
			c-0.629,0-1.794,1.64-2.385,0.37c-0.315,0.139-1.03,0.158-1.03,0.02c0,0.044,0,0.044,0,0.092c0,0.226,0,0,0,0.226
			c0,4.331,4.823,7.354,9.155,7.354c0.77,0,0.043,1.354,1.938,0.496c-0.138-0.178,0.45-0.358,0.312-0.54
			c0.138-0.091-0.406-0.183-0.406-0.272v-0.091c0-0.268,0.411-0.538,0.498-0.947c0,0.135,0.132-1.132,0.494-0.995L23.137,105h0.042
			c0.138,0,0.313,1.764,0.497,1.813c-0.046,0.042-0.091,0.857-0.091,0.857c0,0.182,0.091,0.651,0.228,0.838
			c-0.228,0.129-0.451,0.413-0.633,0.506c-0.042-0.093-0.091-0.037-0.136-0.086c0,0.049,0.045,0.139,0.094,0.229
			c-0.049,0.044-0.094,0.069-0.094,0.069c1.85,2.254,5.011,4.164,8.034,4.164c3.924,0,7.717-1.978,9.251-5.32
			c1.849,2.981,5.369,5.153,9.111,5.153c5.914,0,10.789-5.054,10.789-10.964c0-2.393-0.766-2.753-2.167-6.768
			c0.813,0,1.714,0.901,2.615,0.901c4.559,0,8.215-3.25,8.215-7.762C68.891,84.115,65.144,80.007,60.589,80.007z M22.772,99.822
			c0.046-0.095,0.091-0.182,0.091-0.274c0.042-0.044,0.042-0.044,0.089-0.089c0.09,0,0.226,0,0.312-0.044
			C23.137,99.548,22.953,99.685,22.772,99.822z M24.035,98.916c-0.183,0.18-0.406,0.314-0.634,0.409
			c0.184-0.138,0.411-0.274,0.587-0.453c0.046-0.044,0.137-0.136,0.225-0.182C24.171,98.784,24.125,98.828,24.035,98.916z
			 M24.396,83.534v-0.772c0,0.316,0.092,0.538,0.137,0.772H24.396z M38.57,80.37c-0.051,0.183-0.097,0.361-0.136,0.542
			c-0.138-0.228-0.199-0.45-0.291-0.674c-1.76-0.814-1.729-1.582-1.729-2.437v-0.495c1,0.134,1.868,0.312,2.226,0.495
			c0,0.182-0.105,0.404-0.151,0.587c0.542,0.584,0.355,1.262,0.089,1.938c0.179,0.045,0.356,0.136,0.624,0.274
			C38.934,80.507,38.75,80.461,38.57,80.37z M54.045,92h-0.043H53.95c-0.042,0-0.042,0-0.042,0h-0.089c0,0,0,0.268-0.045,0.268
			c0,0,0.045,0.732,0.045-0.268c0,0-0.363,0-0.5,0h-0.042c-0.137,0-0.864,0.327-0.864-0.031v-0.227c0-0.137-1.034-0.743-1.531-0.743
			h1.531c0,0,0,0.563,0,0.605v0.137c0,0.18,0.837,0.359,1.287,0.54c0.046,0,0.059,0.044,0.104,0.044
			c0.045,0,0.029,0.093,0.029,0.093c0.045,0.044,0.038,0.044,0.082,0.044c-0.044,0.136-0.049-0.32-0.094-0.229
			C53.912,92.366,53.95,92,54.13,92C54.086,92,54.086,92,54.045,92z M53.908,92.419c0-0.093,0-0.179,0-0.137l0.042-0.581v-0.05
			c0-0.046,0-0.046,0-0.046v-0.087h0.052c0,0,0,0,0,0.045v0.042c0.043,0.227,0.085,0.721,0.129,0.721
			C54.001,92.327,53.908,92.419,53.908,92.419z"/>
	</g>
	<g>
		<path fill="#E33E57" d="M36.536,76.036c-0.093,0.41-0.183,0.815-0.183,1.22c0-0.363-0.09-0.676-0.273-0.988
			C36.217,76.173,36.399,76.084,36.536,76.036z"/>
	</g>
	<g>
		<path fill="#E33E57" d="M39.198,80.599c-0.269-0.092-0.449-0.138-0.628-0.229c-0.051,0.183-0.097,0.361-0.136,0.542
			c-0.138-0.228-0.199-0.45-0.291-0.674c-1.76-0.814-1.729-1.582-1.729-2.437v-0.495c1,0.134,1.868,0.312,2.226,0.495
			c0,0.182-0.105,0.404-0.151,0.587c0.542,0.584,0.355,1.262,0.089,1.938C38.756,80.37,38.93,80.461,39.198,80.599z"/>
	</g>
	<g>
		<path fill="#E33E57" d="M52.285,91.519c0,0.045,0,0.045,0,0.087v0.137c-0.453-0.137-0.905-0.224-1.401-0.224H52.285z"/>
	</g>
	<g>
		<path fill="#E33E57" d="M53.636,92.282c-0.091,0.225-0.222,0.455-0.317,0.635h-0.042c-0.137-0.361-0.993-0.591-0.993-0.948v-0.227
			C52.738,91.923,53.186,92.102,53.636,92.282z"/>
	</g>
	<g>
		<path fill="#E33E57" d="M54.001,91.519c0,0,0,0,0,0.045v0.042H53.95v-0.087H54.001z"/>
	</g>
	<g>
		<path fill="#E33E57" d="M24.213,98.69c-0.042,0.094-0.088,0.137-0.178,0.226l-0.046-0.044
			C24.035,98.828,24.125,98.736,24.213,98.69z"/>
	</g>
	<g>
		<path fill="#E33E57" d="M24.533,83.534h-0.137v-0.772C24.396,83.078,24.487,83.299,24.533,83.534z"/>
	</g>
	<g>
		<path fill="#E33E57" d="M117.985,31.726c-0.137,0-0.225,0.226-0.316,0.176c-0.045,0.187-0.132,0.545-0.184,0.728
			c-0.128-0.273-0.22-0.428-0.357-0.701c-1.44-0.675-1.851-1.319-1.896-1.995c-0.043-0.091-0.043-0.167-0.043-0.255
			c0.225-0.224,0.453-0.353,0.724-0.535c0.137-0.088,0.266-0.175,0.404-0.266c0.585,0.136,1.169,0.229,1.406,0.364
			c0,0.228-0.099-0.091-0.185,0.133c0.629,0.632,0.405,1.625,0.132,1.625h0.053C117.806,31,117.896,31.63,117.985,31.726z"/>
	</g>
	<g>
		<path fill="#E33E57" d="M133.193,44.769c0,0.043,0,0.043,0,0.089v0.177c-0.544-0.177-1.038-0.266-1.578-0.266H133.193z"/>
	</g>
	<g>
		<path fill="#E33E57" d="M135.001,45.851c-0.048,0.137-0.048,0.315-0.093,0.4c0,0-0.544,0.098-0.584,0.098
			c-0.184-0.408-1.13-0.681-1.13-1.084v-0.23c0.543,0.183,1.13,0.455,1.671,0.681c0.043,0,0.043,0.09,0.043,0.09
			C134.953,45.851,134.953,45.851,135.001,45.851z"/>
	</g>
	<g>
		<path fill="#E33E57" d="M135.273,46.662c-0.052,0-0.052,0-0.099,0l-0.038-0.045h-0.045c-0.046-0.043-0.046-0.043-0.09-0.091
			h-0.093c0,0,0-0.04-0.043-0.04c0,0,0.043-0.097,0.043-0.235C135.001,46.389,135.091,46.525,135.273,46.662z"/>
	</g>
	<g>
		<path fill="#E33E57" d="M135.273,45.715c-0.137-0.047-0.229,0.09-0.272,0.09c0-0.137,0.043-0.229,0.043-0.181l0.046-0.855h0.045
			C135.174,44.769,135.221,45.715,135.273,45.715z"/>
	</g>
	<g>
		<path fill="#E33E57" d="M101.787,35.742h-0.182v-0.901C101.605,35.153,101.695,35.467,101.787,35.742z"/>
	</g>
	<g>
		<path fill="#E33E57" d="M101.695,34.387c-0.045,0.092-0.09,0.138-0.09,0.229v-0.184C101.65,34.387,101.695,34.387,101.695,34.387z
			"/>
	</g>
	<g>
		<path fill="#E33E57" d="M104.414,41.071v-0.994l0.807,0.177c-0.045-0.088,0.378-0.138,0.333-0.177
			c-0.264,0-0.462,0.126-0.509,0.081c-1.308-0.991-2.759-2.158-3.258-4.158h1.397c0.094,0-0.77-0.258-0.77-0.212v-0.046
			c0-0.359,0.77,0.258,0.727,0.258h0.042c1.038,0,2.303,2.308,2.71,4.069c0.045,0.223-0.7-0.019-0.7,0.204l-0.78-0.293V41.071
			L104.414,41.071z"/>
	</g>
	<g>
		<path fill="#E33E57" d="M104.179,49.37c-0.274,0.409-0.495,0.812-0.764,1.216c-0.184,0.274-0.412,0.592-0.64,0.814
			c0,0,0,0-0.041-0.044c0.269-0.359,0.449-0.633,0.681-0.946c-0.137-0.181-0.274-0.134-0.456-0.229
			C103.366,49.865,103.767,49.597,104.179,49.37z"/>
	</g>
</g>
</svg>
