<?xml version="1.0" encoding="utf-8"?>
<!-- Generator: Adobe Illustrator 16.2.1, SVG Export Plug-In . SVG Version: 6.00 Build 0)  -->
<!DOCTYPE svg PUBLIC "-//W3C//DTD SVG 1.1//EN" "http://www.w3.org/Graphics/SVG/1.1/DTD/svg11.dtd">
<svg version="1.1" id="Layer_1" xmlns="http://www.w3.org/2000/svg" xmlns:xlink="http://www.w3.org/1999/xlink" x="0px" y="0px"
	 width="161.744px" height="146.162px" viewBox="-19.256 -17.837 161.744 146.162"
	 enable-background="new -19.256 -17.837 161.744 146.162" xml:space="preserve">
<g>
	<path fill="#E33F58" d="M103.47,124.771l3.278-5.42c0.462,0.502,1.219,0.839,1.975,0.839c1.053,0,1.681-0.672,1.681-1.807v-22.23
		h7.984v21.6c0,5.507-3.572,9.287-8.656,9.287C107.421,127.04,105.194,126.242,103.47,124.771z M110.406,94.302v-6.725h7.984v6.725
		H110.406z"/>
	<path fill="#E33F58" d="M120.703,116.031l3.065-5.422c3.068,1.597,5.928,2.481,8.321,2.481c1.43,0,2.102-0.337,2.102-1.051
		c0-0.756-0.882-1.178-4.034-1.977c-6.263-1.638-8.32-3.276-8.32-6.598c0-4.539,3.948-7.776,9.455-7.776
		c2.942,0,6.431,0.882,9.96,2.48l-3.069,5.085c-3.108-1.47-4.999-2.058-6.891-2.058c-1.219,0-2.059,0.377-2.059,1.135
		c0,0.84,0.798,1.219,3.74,1.933c6.766,1.724,8.909,3.446,8.909,7.062c0,4.538-3.699,7.354-9.623,7.354
		C128.518,118.677,123.559,117.542,120.703,116.031z"/>
</g>
<path fill="#FFFFFF" d="M11.151,24.578V3.347L4.856,18.276h-5.502l-5.559-15.07v21.231l-11.051,0.142v-40.304H-5.78l7.884,18.96
	l7.796-18.96h12.275v40.304H11.151z"/>
<path fill="#FFFFFF" d="M23.326,24.578L38.37-15.726h8.969l14.987,40.304H50.632l-2.44-7.89H37.463l-2.385,7.89H23.326z
	 M42.856-4.202L39.109,9.308h7.323L42.856-4.202z"/>
<path fill="#FFFFFF" d="M74.699,4.767v19.812h-11.07v-40.304h8.63L88.435,4.767v-20.493h11.071v40.304h-8.799L74.699,4.767z"/>
<path fill="#FFFFFF" d="M18.393,30.82v40.306H7.323V55.345H-6.189v15.781h-11.069V30.82h11.069v14.873H7.323V30.82H18.393z"/>
<path fill="#FFFFFF" d="M24.577,71.125L39.619,30.82h8.97l14.987,40.306H51.882l-2.441-7.892H38.711l-2.383,7.892H24.577z
	 M44.104,42.344l-3.748,13.51h7.323L44.104,42.344z"/>
<path fill="#FFFFFF" d="M99.507,40.47h-11.58v30.655H76.857V40.47H65.219v-9.65h34.287V40.47z"/>
<path fill="#FFFFFF" d="M17.029,87.016H5.449v30.655h-11.07V87.016h-11.638v-9.648h34.287L17.029,87.016L17.029,87.016z"/>
<path fill="#FFFFFF" d="M18.248,117.671L33.29,77.368h8.969l14.987,40.304H45.552l-2.44-7.892H32.383l-2.385,7.892H18.248z
	 M37.775,88.89l-3.748,13.511h7.323L37.775,88.89z"/>
<path fill="#FFFFFF" d="M74.699,97.86v19.812h-11.07V77.368h8.63L88.435,97.86V77.368h11.071v40.304h-8.799L74.699,97.86z"/>
</svg>
