<?xml version="1.0" encoding="utf-8"?>
<!-- Generator: Adobe Illustrator 16.2.1, SVG Export Plug-In . SVG Version: 6.00 Build 0)  -->
<!DOCTYPE svg PUBLIC "-//W3C//DTD SVG 1.1//EN" "http://www.w3.org/Graphics/SVG/1.1/DTD/svg11.dtd">
<svg version="1.1" id="Layer_1" xmlns="http://www.w3.org/2000/svg" xmlns:xlink="http://www.w3.org/1999/xlink" x="0px" y="0px"
	 width="142.488px" height="128.325px" viewBox="0 0 142.488 128.325" enable-background="new 0 0 142.488 128.325"
	 xml:space="preserve">
<g>
	<path fill="#E33F58" d="M108.048,125.041l2.887-4.774c0.407,0.443,1.074,0.74,1.74,0.74c0.926,0,1.48-0.593,1.48-1.592V99.832
		h7.033v19.027c0,4.85-3.146,8.181-7.625,8.181C111.527,127.04,109.566,126.337,108.048,125.041z M114.156,98.203v-5.923h7.033
		v5.923H114.156z"/>
	<path fill="#E33F58" d="M123.226,117.342l2.701-4.775c2.703,1.406,5.221,2.185,7.33,2.185c1.259,0,1.851-0.297,1.851-0.926
		c0-0.666-0.777-1.036-3.554-1.74c-5.516-1.443-7.329-2.887-7.329-5.812c0-3.998,3.479-6.849,8.329-6.849
		c2.591,0,5.664,0.777,8.773,2.185l-2.703,4.479c-2.738-1.295-4.404-1.813-6.07-1.813c-1.074,0-1.814,0.333-1.814,1
		c0,0.74,0.703,1.073,3.295,1.702c5.96,1.518,7.848,3.036,7.848,6.219c0,3.998-3.258,6.479-8.477,6.479
		C130.111,119.674,125.742,118.675,123.226,117.342z"/>
</g>
<path fill="#FFFFFF" d="M26.728,36.787V18.086l-5.545,13.15h-4.846l-4.897-13.275v18.701l-9.734,0.125V1.285h10.109l6.945,16.701
	l6.867-16.701h10.812v35.502H26.728z"/>
<path fill="#FFFFFF" d="M37.453,36.787L50.704,1.285h7.9l13.201,35.502H61.505l-2.15-6.95h-9.45l-2.101,6.95H37.453z M54.655,11.436
	l-3.3,11.9h6.45L54.655,11.436z"/>
<path fill="#FFFFFF" d="M82.704,19.336v17.451h-9.751V1.285h7.601l14.25,18.051V1.285h9.752v35.502h-7.751L82.704,19.336z"/>
<path fill="#FFFFFF" d="M33.107,42.285v35.502h-9.751v-13.9H11.455v13.9h-9.75V42.285h9.75v13.101h11.901V42.285H33.107z"/>
<path fill="#FFFFFF" d="M38.554,77.787l13.25-35.502h7.901l13.201,35.502H62.606l-2.15-6.95h-9.451l-2.1,6.95H38.554z
	 M55.755,52.436l-3.301,11.9h6.45L55.755,52.436z"/>
<path fill="#FFFFFF" d="M104.556,50.785H94.355v27.002h-9.75V50.785H74.354v-8.5h30.202V50.785z"/>
<path fill="#FFFFFF" d="M31.906,91.785h-10.2v27.002h-9.751V91.785H1.704v-8.5h30.201V91.785z"/>
<path fill="#FFFFFF" d="M32.979,118.787l13.25-35.502h7.901l13.201,35.502H57.03l-2.149-6.95h-9.451l-2.1,6.95H32.979z
	 M50.18,93.436l-3.301,11.9h6.45L50.18,93.436z"/>
<path fill="#FFFFFF" d="M82.704,101.336v17.451h-9.751V83.285h7.601l14.25,18.051V83.285h9.752v35.502h-7.751L82.704,101.336z"/>
</svg>
