<?xml version="1.0" encoding="utf-8"?>
<!-- Generator: Adobe Illustrator 17.1.0, SVG Export Plug-In . SVG Version: 6.00 Build 0)  -->
<!DOCTYPE svg PUBLIC "-//W3C//DTD SVG 1.1//EN" "http://www.w3.org/Graphics/SVG/1.1/DTD/svg11.dtd">
<svg version="1.1" id="Layer_1" xmlns="http://www.w3.org/2000/svg" xmlns:xlink="http://www.w3.org/1999/xlink" x="0px" y="0px"
	 viewBox="0 0 162 105.1" enable-background="new 0 0 162 105.1" xml:space="preserve">
<path fill="#E33F58" d="M147.2,18c-0.1,0-0.3-0.1-0.4-0.2c0,0,0,0-0.1,0c-0.5-3.1-4.5-5.5-7.9-6.2c0,0-0.3,0-0.3,0
	c-0.1,0-0.3-0.1-0.4-0.1c-1.4-3-4.5-5.1-8.1-5.1c-4.8,0-9.3,3.8-9.3,8.5c0,0,0,0,0,0c-0.1-2-3.2-3.3-5.6-3.3c-4.1,0-7.8,3.7-7.8,8.2
	c0,0.1,0,0.2-0.2,0.3c-0.7-3-6.4-4.8-10.6-4.8C89,15.2,83,20.5,83,28c0,6.2,4.1,12,9.6,12.3c-0.3,0.8-0.5,1.7-0.5,2.5
	c0,5,5,9,11.2,9c1.1,0,2.2-0.1,3.2-0.4c2,2.6,4.8,4.5,8.3,4.5c4.5,0,8.2-2.4,10-6.2c2.1,3.4,5.8,5.8,10.1,5.8c6.7,0,12-5.8,12-12.4
	c0-2.7-0.9-3.2-2.5-7.7c0.9,0,1.9,1,2.9,1c5.1,0,9.3-3.6,9.3-8.7C156.6,22.6,152.3,18,147.2,18z"/>
<path fill="#E33F58" d="M65.5,66.1c-0.1,0-0.2-0.1-0.4-0.2c0,0,0,0,0,0c-0.5-2.8-4-4.9-6.9-5.4c0,0-0.3,0-0.3,0
	c-0.1,0-0.3,0-0.4-0.1c-1.3-2.7-4.4-4.5-7.5-4.5c-3.8,0-7.5,2.7-8.4,6.2c-0.1,0.1-0.3,0.2-0.4,0.4c0,0-0.1,0-0.1,0.1
	c-0.7-1.3-2.6-2-4.4-2c-3.7,0-6.7,3.3-6.7,7.3c0,0.1,0,0.1-0.1,0.2c-0.2,0-0.5-0.1-0.7-0.1c-0.9-2.5-5.3-4.1-8.9-4.1
	c-6.7,0-11.8,4.2-11.8,10.8c0,4.5,2.6,8.5,6.3,9.9c-0.7,1.1-1.1,2.3-1.1,3.6c0,4.7,5.3,8.5,11.8,8.5c1.2,0,2.4-0.1,3.5-0.4
	c1.9,1.8,4.5,3.2,7.1,3.2c3.9,0,7.7-2,9.2-5.3c1.8,3,5.3,5.1,9.1,5.1c5.9,0,10.7-5,10.7-10.9c0-2.4-0.8-2.7-2.2-6.7
	c0.8,0,1.7,0.9,2.6,0.9c4.5,0,8.2-3.2,8.2-7.7C73.8,70.2,70.1,66.1,65.5,66.1z"/>
</svg>
