<?xml version="1.0" encoding="utf-8"?>
<!-- Generator: Adobe Illustrator 17.1.0, SVG Export Plug-In . SVG Version: 6.00 Build 0)  -->
<!DOCTYPE svg PUBLIC "-//W3C//DTD SVG 1.1//EN" "http://www.w3.org/Graphics/SVG/1.1/DTD/svg11.dtd">
<svg version="1.1" id="Layer_1" xmlns="http://www.w3.org/2000/svg" xmlns:xlink="http://www.w3.org/1999/xlink" x="0px" y="0px"
	 viewBox="143 0 151 714" enable-background="new 143 0 151 714" xml:space="preserve">
<g>
	<rect x="241" y="177.2" fill="#C7E6D7" width="5.8" height="5.8"/>
	<path fill="#C7E6D7" d="M227.2,108.8l-1.3-13.1l-8,9.4C220.9,106,224,107.2,227.2,108.8L227.2,108.8z"/>
	<path fill="#C7E6D7" d="M216.6,104.8l-2.4-15.1l-8.9,14C208.7,103.7,212.5,103.9,216.6,104.8L216.6,104.8z"/>
	<path fill="#C7E6D7" d="M200.2,93.7l-2.8,10.9c1.9-0.4,4.2-0.7,6.6-0.8L200.2,93.7z"/>
	<rect x="246.9" y="243.4" fill="#C7E6D7" width="9.7" height="3.9"/>
	<rect x="243" y="192.8" fill="#C7E6D7" width="11.7" height="5.8"/>
	<rect x="243" y="224" fill="#C7E6D7" width="11.7" height="3.9"/>
	<path fill="#C7E6D7" d="M231.6,139.6l-1.9-14.9l-13.1,8.2C221.5,134.1,226.5,136.2,231.6,139.6L231.6,139.6z"/>
	<rect x="243" y="208.4" fill="#C7E6D7" width="11.7" height="5.8"/>
	<rect x="153.4" y="190.9" fill="#C7E6D7" width="9.7" height="5.8"/>
	<rect x="153.4" y="255.1" fill="#C7E6D7" width="9.7" height="5.8"/>
	<path fill="#C7E6D7" d="M176.8,166l4.4,12.1c0.9-1.6,3.1-5.2,6.5-8.8L176.8,166z"/>
	<path fill="#C7E6D7" d="M188.7,150.7l1.2,16.3c2.4-2.2,5.2-4.3,8.4-5.8L188.7,150.7z"/>
	<rect x="153.4" y="243.4" fill="#C7E6D7" width="9.7" height="3.9"/>
	<path fill="#C7E6D7" d="M214.9,132.5l-4-14.1l-11.3,13.9C204.3,131.6,209.5,131.4,214.9,132.5L214.9,132.5z"/>
	<rect x="237.1" y="278.5" fill="#C7E6D7" width="23.4" height="9.7"/>
	<path fill="#C7E6D7" d="M192.7,119.7l-2.4,15.1c2.3-0.9,4.8-1.6,7.5-2.2L192.7,119.7z"/>
	<rect x="153.4" y="224" fill="#C7E6D7" width="9.7" height="3.9"/>
	<rect x="153.4" y="202.5" fill="#C7E6D7" width="9.7" height="7.8"/>
	<polygon fill="#C7E6D7" points="178.7,352.4 153.4,352.4 153.4,356.5 153.8,362.2 178.7,362.2 	"/>
	<polygon fill="#C7E6D7" points="184.6,580.2 169.1,580.2 169.7,589.9 184.6,589.9 	"/>
	<polygon fill="#C7E6D7" points="182.6,529.6 166,529.6 166.6,539.3 182.6,539.3 	"/>
	<polygon fill="#C7E6D7" points="186.5,605.5 170.9,605.5 170.9,610.8 171.3,617.2 186.5,617.2 	"/>
	<polygon fill="#C7E6D7" points="186.5,648.3 173.2,648.3 173.7,656.1 186.5,656.1 	"/>
	<path fill="#C7E6D7" d="M207.3,144.9l-6.4,15.3c1.4-0.5,2.9-0.9,4.5-1.1c2.7-0.3,5.4-0.2,8.1,0.5L207.3,144.9z"/>
	<polygon fill="#C7E6D7" points="186.5,628.9 172,628.9 172.5,636.7 186.5,636.7 	"/>
	<polygon fill="#C7E6D7" points="178.7,331 151.7,331 151.9,335.4 152.1,338.8 178.7,338.8 	"/>
	<polygon fill="#C7E6D7" points="176.8,403.1 157.3,403.1 157.3,409.5 157.6,412.8 176.8,412.8 	"/>
	<polygon fill="#C7E6D7" points="176.8,286.3 150.3,286.3 150.5,294 176.8,294 	"/>
	<rect x="243" y="523.8" fill="#C7E6D7" width="11.7" height="7.8"/>
	<rect x="241" y="299.9" fill="#C7E6D7" width="17.5" height="9.7"/>
	<rect x="241" y="340.8" fill="#C7E6D7" width="17.5" height="9.7"/>
	<rect x="241" y="389.4" fill="#C7E6D7" width="15.6" height="9.7"/>
	<rect x="241" y="323.2" fill="#C7E6D7" width="17.5" height="7.8"/>
	<rect x="239.1" y="368" fill="#C7E6D7" width="17.5" height="7.8"/>
	<rect x="241" y="496.5" fill="#C7E6D7" width="13.6" height="9.7"/>
	<rect x="241" y="414.7" fill="#C7E6D7" width="15.6" height="9.7"/>
	<rect x="241" y="463.4" fill="#C7E6D7" width="13.6" height="7.8"/>
	<rect x="241" y="436.1" fill="#C7E6D7" width="15.6" height="9.7"/>
	<path fill="#C7E6D7" d="M228.5,168.1l-1.1-17.4l-10.9,9.8C220.4,162,224.5,164.5,228.5,168.1L228.5,168.1L228.5,168.1z"/>
	<rect x="211.8" y="206.4" fill="#C7E6D7" width="3.9" height="5.8"/>
	<polygon fill="#C7E6D7" points="222.4,251.4 236.4,656.1 239.4,656.1 229.3,251.5 	"/>
	<rect x="211.8" y="222" fill="#C7E6D7" width="3.9" height="5.8"/>
	<rect x="211.8" y="177.2" fill="#C7E6D7" width="3.9" height="5.8"/>
	<rect x="165.1" y="504.3" fill="#C7E6D7" width="17.5" height="7.8"/>
	<rect x="211.8" y="190.9" fill="#C7E6D7" width="3.9" height="5.8"/>
	<rect x="169" y="551" fill="#C7E6D7" width="15.6" height="7.8"/>
	<polygon fill="#C7E6D7" points="187,253.7 203.2,652.2 210.5,652.2 194.1,253.2 	"/>
	<rect x="165.1" y="479" fill="#C7E6D7" width="17.5" height="7.8"/>
	<rect x="163.1" y="373.9" fill="#C7E6D7" width="15.6" height="9.7"/>
	<polygon fill="#C7E6D7" points="203.7,252.7 220.2,653.5 225.5,652.7 210.2,251.5 	"/>
	<rect x="163.1" y="430.3" fill="#C7E6D7" width="15.6" height="7.8"/>
	<path fill="#C7E6D7" d="M244.9,658v-11.7h7.1l0.3-7.8h-7.4v-11.7h7.9l0.3-5.8h-8.2v-11.7h8.7l0.3-7.8h-9V586h9.7l0.4-9.7h-8.2
		v-11.7h8.7l0.3-5.8h-10.9v-11.7h11.4l16.1-367.4l-18.4-2.5l-22.1-98.4l-13.5-4.8L217,13.7h-7.4L203.5,76h-16l-22.1,105.1h-18.5
		l3.3,103.2h28.5v11.7h-28.1l0.3,9.7h29.8v15.6h-29.3l0.2,7.8h29v11.7h-28.4l0.7,9.7h27.7v13.6h-26.7l2.7,37h22v13.6h-21l3.5,47.7
		v-12.7h19.5v13.6h-19.4l2.9,38.9h20.4V514H165l0.4,5.5l0.5,8.1h18.7v13.6h-17.8l0.5,7.8h19.3v11.7h-18.6l1.1,17.5h17.5v13.6h-16.7
		l0.7,11.7h18v15.6h-17l0.5,7.8h16.5v11.7h-15.8l0.5,7.8h15.4V658h-14.7l1.4,23.6l75,3.6l1.2-27.2L244.9,658L244.9,658z
		 M256.6,533.4H241v-11.7h15.6V533.4z M256.6,508.1H239v-13.6h17.5V508.1z M256.6,473.1H239v-11.7h17.5V473.1z M258.5,447.8H239
		v-13.6h19.5V447.8z M258.5,426.4H239v-13.6h19.5V426.4z M258.5,401.1H239v-13.6h19.5V401.1z M258.5,377.7h-21.4V366h21.4V377.7z
		 M260.5,352.4H239v-13.6h21.4V352.4z M260.5,332.9H239v-11.7h21.4V332.9z M260.5,311.5H239v-13.6h21.4V311.5z M262.4,290.1h-27.3
		v-13.6h27.3V290.1z M258.5,249.2h-13.6v-7.8h13.6V249.2z M256.6,222v7.8H241V222H256.6z M241,216.1v-9.7h15.6v9.7H241z
		 M256.6,190.8v9.7H241v-9.7H256.6z M248.8,185H239v-9.7h9.7V185z M194.5,104.7l5.2-20l5.4,14.2l10.7-16.7l2.8,17.9l9.3-10.9
		l2.2,21.5c1.4,0.9,2.7,1.8,4.1,2.9l-1.7,2.2c-20.1-15.9-41.5-6.4-41.7-6.3l-1.2-2.5c0.1,0,2.3-1,5.9-1.9L194.5,104.7z M189.9,135
		l-2.4-0.4l4-25.3l7.6,19.1l13-15.9l4.8,16.9l15-9.4l2.7,21.8c2.2,1.7,4.5,3.6,6.7,5.9l-2,2c-31-31-60.4-5.7-61.6-4.6L176,143
		C176.1,143,181.5,138.3,189.9,135L189.9,135z M151.4,188.9h13.6v9.7h-13.6V188.9z M151.4,200.6h13.6v11.7h-13.6V200.6L151.4,200.6z
		 M151.4,222h13.6v7.8h-13.6V222z M151.4,241.4h13.6v7.8h-13.6V241.4z M151.4,253.1h13.6v9.7h-13.6V253.1z M174.8,244.1v30.5h-19.5
		v-1.9h17.5v-30.2l57.4-9.3l0.8-58.5c-8.6-9.5-17.1-13.7-25.2-12.7c-12.9,1.6-21.3,16-22.4,18.1l-3.7,59.4l-2.8-0.2l3.7-60l0.1-0.3
		c0,0,0,0,0-0.1l-1.9,0.7l-6.5-17.8l14.7,4.4l-1.7-23.2l13.5,14.8l8.4-20.1l8.3,19.8l14.1-12.7l1.7,26.2c0.7,0.7,1.3,1.4,2,2.1
		l0.4,0.4l-0.8,59.1l4.1-0.7v27.9l21,0.2l0.2,1.9l-23.1-0.2v-27.5L174.8,244.1z M202,194.7v7.8h-5.8v-7.8H202z M196.2,186.9v-7.8
		h5.8v7.8H196.2z M202,210.3v5.8h-5.8v-5.8H202z M202,222v9.7h-5.8V222H202z M217.6,188.9v9.7h-7.8v-9.7H217.6z M209.8,185v-9.7h7.8
		v9.7H209.8z M217.6,204.4v9.7h-7.8v-9.7H217.6z M217.6,220v9.7h-7.8V220H217.6z M161.2,385.5v-13.6h19.5v13.6H161.2z M161.2,440
		v-11.7h19.5V440H161.2z M184.5,488.7h-21.4V477h21.4V488.7z M201.3,654.1l-16.4-402.3l11-0.8l0,1l16.5,402L201.3,654.1L201.3,654.1
		z M217.6,656.6l-0.1-1.5l-16.7-404.7l12-2.2L228.3,655L217.6,656.6z M234.5,658l0-0.9l-14.2-407.7l10.9,0.1l0,0.9L241.4,658H234.5z
		"/>
	<polygon fill="#C7E6D7" points="246.9,656.1 251.6,656.1 251.9,648.3 246.9,648.3 	"/>
	<polygon fill="#C7E6D7" points="246.9,556.8 255.9,556.8 256.2,549.1 246.9,549.1 	"/>
	<polygon fill="#C7E6D7" points="246.9,599.7 254,599.7 254.5,588 246.9,588 	"/>
	<rect x="197.4" y="212.3" fill="#C7E6D7" width="1.9" height="1.9"/>
	<polygon fill="#C7E6D7" points="246.9,619.1 253.2,619.1 253.5,611.4 246.9,611.4 	"/>
	<rect x="197.4" y="181.1" fill="#C7E6D7" width="1.9" height="3.9"/>
	<polygon fill="#C7E6D7" points="246.9,636.7 252.4,636.7 252.7,628.9 246.9,628.9 	"/>
	<rect x="151.5" y="307.7" fill="#C7E6D7" width="27.3" height="11.7"/>
	<rect x="163.1" y="451.7" fill="#C7E6D7" width="15.6" height="9.7"/>
	<rect x="197.4" y="196.7" fill="#C7E6D7" width="1.9" height="3.9"/>
	<rect x="198.2" y="224" fill="#C7E6D7" width="1.9" height="5.8"/>
	<polygon fill="#C7E6D7" points="248.8,574.4 255.1,574.4 255.5,566.6 248.8,566.6 	"/>
</g>
</svg>
